%TF.GenerationSoftware,KiCad,Pcbnew,(6.0.7-1)-1*%
%TF.CreationDate,2022-09-20T14:46:44+12:00*%
%TF.ProjectId,ENEL300Group10MCUBoard,454e454c-3330-4304-9772-6f757031304d,rev?*%
%TF.SameCoordinates,Original*%
%TF.FileFunction,Paste,Top*%
%TF.FilePolarity,Positive*%
%FSLAX46Y46*%
G04 Gerber Fmt 4.6, Leading zero omitted, Abs format (unit mm)*
G04 Created by KiCad (PCBNEW (6.0.7-1)-1) date 2022-09-20 14:46:44*
%MOMM*%
%LPD*%
G01*
G04 APERTURE LIST*
G04 Aperture macros list*
%AMRoundRect*
0 Rectangle with rounded corners*
0 $1 Rounding radius*
0 $2 $3 $4 $5 $6 $7 $8 $9 X,Y pos of 4 corners*
0 Add a 4 corners polygon primitive as box body*
4,1,4,$2,$3,$4,$5,$6,$7,$8,$9,$2,$3,0*
0 Add four circle primitives for the rounded corners*
1,1,$1+$1,$2,$3*
1,1,$1+$1,$4,$5*
1,1,$1+$1,$6,$7*
1,1,$1+$1,$8,$9*
0 Add four rect primitives between the rounded corners*
20,1,$1+$1,$2,$3,$4,$5,0*
20,1,$1+$1,$4,$5,$6,$7,0*
20,1,$1+$1,$6,$7,$8,$9,0*
20,1,$1+$1,$8,$9,$2,$3,0*%
G04 Aperture macros list end*
%ADD10RoundRect,0.250000X-0.412500X-0.650000X0.412500X-0.650000X0.412500X0.650000X-0.412500X0.650000X0*%
%ADD11RoundRect,0.250000X0.412500X0.650000X-0.412500X0.650000X-0.412500X-0.650000X0.412500X-0.650000X0*%
%ADD12RoundRect,0.250000X-0.650000X0.412500X-0.650000X-0.412500X0.650000X-0.412500X0.650000X0.412500X0*%
%ADD13RoundRect,0.250000X0.400000X0.625000X-0.400000X0.625000X-0.400000X-0.625000X0.400000X-0.625000X0*%
%ADD14RoundRect,0.250000X-0.362500X-0.700000X0.362500X-0.700000X0.362500X0.700000X-0.362500X0.700000X0*%
%ADD15RoundRect,0.250000X-0.625000X0.400000X-0.625000X-0.400000X0.625000X-0.400000X0.625000X0.400000X0*%
%ADD16R,1.150000X0.600000*%
%ADD17R,1.150000X0.300000*%
%ADD18R,1.500000X0.550000*%
%ADD19R,0.550000X1.500000*%
%ADD20RoundRect,0.250000X-0.700000X0.362500X-0.700000X-0.362500X0.700000X-0.362500X0.700000X0.362500X0*%
%ADD21RoundRect,0.250000X0.650000X-0.412500X0.650000X0.412500X-0.650000X0.412500X-0.650000X-0.412500X0*%
G04 APERTURE END LIST*
D10*
%TO.C,C8*%
X99687500Y-79250000D03*
X102812500Y-79250000D03*
%TD*%
D11*
%TO.C,C3*%
X93462500Y-58800000D03*
X90337500Y-58800000D03*
%TD*%
D12*
%TO.C,C4*%
X99900000Y-66237500D03*
X99900000Y-69362500D03*
%TD*%
D13*
%TO.C,R1*%
X81550000Y-53500000D03*
X78450000Y-53500000D03*
%TD*%
D14*
%TO.C,L1*%
X114087500Y-61500000D03*
X117412500Y-61500000D03*
%TD*%
D15*
%TO.C,R7*%
X61600000Y-71250000D03*
X61600000Y-74350000D03*
%TD*%
D12*
%TO.C,C9*%
X87800000Y-57437500D03*
X87800000Y-60562500D03*
%TD*%
D16*
%TO.C,J1*%
X57755000Y-59300000D03*
X57755000Y-65700000D03*
X57755000Y-60100000D03*
X57755000Y-64900000D03*
D17*
X57755000Y-61250000D03*
X57755000Y-62250000D03*
X57755000Y-62750000D03*
X57755000Y-63750000D03*
X57755000Y-64250000D03*
X57755000Y-63250000D03*
X57755000Y-61750000D03*
X57755000Y-60750000D03*
%TD*%
D12*
%TO.C,C2*%
X68200000Y-54397500D03*
X68200000Y-57522500D03*
%TD*%
D13*
%TO.C,R2*%
X81550000Y-57500000D03*
X78450000Y-57500000D03*
%TD*%
D18*
%TO.C,U1*%
X96800000Y-53500000D03*
X96800000Y-54300000D03*
X96800000Y-55100000D03*
X96800000Y-55900000D03*
X96800000Y-56700000D03*
X96800000Y-57500000D03*
X96800000Y-58300000D03*
X96800000Y-59100000D03*
X96800000Y-59900000D03*
X96800000Y-60700000D03*
X96800000Y-61500000D03*
D19*
X98500000Y-63200000D03*
X99300000Y-63200000D03*
X100100000Y-63200000D03*
X100900000Y-63200000D03*
X101700000Y-63200000D03*
X102500000Y-63200000D03*
X103300000Y-63200000D03*
X104100000Y-63200000D03*
X104900000Y-63200000D03*
X105700000Y-63200000D03*
X106500000Y-63200000D03*
D18*
X108200000Y-61500000D03*
X108200000Y-60700000D03*
X108200000Y-59900000D03*
X108200000Y-59100000D03*
X108200000Y-58300000D03*
X108200000Y-57500000D03*
X108200000Y-56700000D03*
X108200000Y-55900000D03*
X108200000Y-55100000D03*
X108200000Y-54300000D03*
X108200000Y-53500000D03*
D19*
X106500000Y-51800000D03*
X105700000Y-51800000D03*
X104900000Y-51800000D03*
X104100000Y-51800000D03*
X103300000Y-51800000D03*
X102500000Y-51800000D03*
X101700000Y-51800000D03*
X100900000Y-51800000D03*
X100100000Y-51800000D03*
X99300000Y-51800000D03*
X98500000Y-51800000D03*
%TD*%
D20*
%TO.C,FB1*%
X65500000Y-54337500D03*
X65500000Y-57662500D03*
%TD*%
D11*
%TO.C,C5*%
X94312500Y-53500000D03*
X91187500Y-53500000D03*
%TD*%
D15*
%TO.C,R3*%
X60750000Y-52950000D03*
X60750000Y-56050000D03*
%TD*%
D12*
%TO.C,C12*%
X111750000Y-61437500D03*
X111750000Y-64562500D03*
%TD*%
D10*
%TO.C,C7*%
X105437500Y-79250000D03*
X108562500Y-79250000D03*
%TD*%
D21*
%TO.C,C10*%
X100100000Y-48562500D03*
X100100000Y-45437500D03*
%TD*%
D10*
%TO.C,C6*%
X52937500Y-84000000D03*
X56062500Y-84000000D03*
%TD*%
D13*
%TO.C,R6*%
X65050000Y-65000000D03*
X61950000Y-65000000D03*
%TD*%
%TO.C,R5*%
X65050000Y-60250000D03*
X61950000Y-60250000D03*
%TD*%
D21*
%TO.C,C13*%
X106500000Y-49000000D03*
X106500000Y-45875000D03*
%TD*%
D11*
%TO.C,C1*%
X67562500Y-50100000D03*
X64437500Y-50100000D03*
%TD*%
D21*
%TO.C,C11*%
X97000000Y-48562500D03*
X97000000Y-45437500D03*
%TD*%
M02*
