M48
; DRILL file {KiCad (6.0.7-1)-1} date Tuesday, 20 September 2022 at 02:46:48 pm
; FORMAT={-:-/ absolute / metric / decimal}
; #@! TF.CreationDate,2022-09-20T14:46:48+12:00
; #@! TF.GenerationSoftware,Kicad,Pcbnew,(6.0.7-1)-1
; #@! TF.FileFunction,Plated,1,2,PTH
FMAT,2
METRIC
; #@! TA.AperFunction,Plated,PTH,ViaDrill
T1C0.400
; #@! TA.AperFunction,Plated,PTH,ComponentDrill
T2C0.600
; #@! TA.AperFunction,Plated,PTH,ComponentDrill
T3C0.800
; #@! TA.AperFunction,Plated,PTH,ComponentDrill
T4C0.900
; #@! TA.AperFunction,Plated,PTH,ComponentDrill
T5C0.990
; #@! TA.AperFunction,Plated,PTH,ComponentDrill
T6C1.000
; #@! TA.AperFunction,Plated,PTH,ComponentDrill
T7C1.300
%
G90
G05
T1
X51.0Y-43.5
X51.0Y-48.5
X51.5Y-71.0
X51.5Y-81.0
X51.5Y-86.0
X56.5Y-56.0
X56.5Y-71.0
X56.5Y-76.0
X56.5Y-86.0
X58.0Y-39.5
X58.0Y-46.0
X59.5Y-64.974
X59.52Y-60.1
X61.5Y-81.0
X61.5Y-86.0
X62.0Y-48.5
X63.0Y-56.0
X63.5Y-52.0
X64.0Y-39.5
X64.0Y-44.0
X66.5Y-61.0
X66.5Y-71.0
X66.5Y-81.0
X66.5Y-86.0
X69.0Y-44.0
X71.5Y-56.0
X71.5Y-71.0
X71.5Y-76.0
X74.0Y-39.5
X74.0Y-44.0
X74.0Y-48.5
X76.5Y-56.0
X76.5Y-61.0
X76.5Y-66.0
X76.5Y-71.0
X76.5Y-76.0
X79.0Y-39.5
X79.0Y-44.0
X79.0Y-48.5
X81.4Y-83.0
X81.5Y-56.0
X81.5Y-61.0
X81.5Y-66.0
X81.5Y-76.0
X81.5Y-85.3
X83.5Y-44.0
X84.0Y-39.5
X84.0Y-48.5
X84.7Y-77.0
X85.7Y-82.9
X86.0Y-80.54
X86.3Y-66.0
X87.8Y-58.9
X88.1Y-42.3
X89.25Y-77.0
X89.6Y-53.4
X89.6Y-67.4
X91.0Y-48.5
X91.3Y-42.3
X91.8Y-58.8
X92.0Y-77.0
X92.2Y-66.0
X94.4Y-51.6
X94.5Y-82.25
X95.0Y-47.25
X95.25Y-76.75
X96.25Y-65.0
X97.7Y-66.4
X98.6Y-56.8
X99.5Y-85.0
X99.9Y-67.8
X100.0Y-53.6
X100.8Y-61.4
X100.84Y-64.91
X104.0Y-67.5
X105.6Y-53.6
X106.4Y-59.6
X106.5Y-47.4
X106.5Y-50.4
X108.0Y-85.0
X108.2Y-63.0
X108.2Y-65.5
X109.2Y-49.8
X111.0Y-42.3
X113.5Y-59.0
X114.0Y-63.5
X114.0Y-68.5
X114.0Y-80.0
X115.2Y-42.4
X116.2Y-77.8
X116.2Y-82.6
X117.5Y-63.5
X117.7Y-42.4
X118.0Y-68.5
X118.5Y-54.0
X118.5Y-59.0
X118.8Y-79.2
X118.8Y-82.6
X119.0Y-73.5
X120.3Y-42.3
X121.4Y-82.6
X122.0Y-68.5
X123.0Y-73.5
X123.5Y-44.0
X123.5Y-54.0
X123.5Y-59.0
X123.5Y-64.0
X124.0Y-78.5
X124.0Y-82.6
X127.0Y-73.5
X127.0Y-78.5
X127.0Y-84.5
X128.5Y-39.0
X128.5Y-44.0
X128.5Y-49.0
X128.5Y-54.0
X128.5Y-59.0
X128.5Y-64.0
X128.5Y-69.0
T3
X80.88Y-71.1
X96.12Y-71.1
X99.65Y-75.0
X104.55Y-75.0
T4
X52.5Y-50.96
X52.5Y-53.5
T5
X52.862Y-75.275
X52.862Y-79.775
T6
X69.0Y-83.0
X69.0Y-85.54
X71.54Y-83.0
X71.54Y-85.54
X74.08Y-83.0
X74.08Y-85.54
X76.62Y-83.0
X76.62Y-85.54
X86.0Y-40.0
X88.0Y-85.0
X88.54Y-40.0
X90.54Y-85.0
X91.08Y-40.0
X93.08Y-85.0
X93.62Y-40.0
X95.62Y-85.0
X96.16Y-40.0
X98.7Y-40.0
X101.24Y-40.0
X103.78Y-40.0
X106.32Y-40.0
X108.86Y-40.0
X110.0Y-84.975
X111.4Y-40.0
X112.54Y-84.975
X113.94Y-40.0
X115.08Y-84.975
X116.48Y-40.0
X117.62Y-84.975
X119.02Y-40.0
X120.16Y-84.975
X121.56Y-40.0
X122.7Y-84.975
X125.24Y-84.975
T7
X55.352Y-74.015
X55.352Y-81.025
T2
X53.4Y-58.18G85X52.6Y-58.18
G05
X53.4Y-66.82G85X52.6Y-66.82
G05
X57.73Y-58.18G85X56.63Y-58.18
G05
X57.73Y-66.82G85X56.63Y-66.82
G05
T0
M30
