%TF.GenerationSoftware,KiCad,Pcbnew,(6.0.7-1)-1*%
%TF.CreationDate,2022-09-20T14:46:52+12:00*%
%TF.ProjectId,ENEL300Group10MCUBoard,454e454c-3330-4304-9772-6f757031304d,rev?*%
%TF.SameCoordinates,Original*%
%TF.FileFunction,Drillmap*%
%TF.FilePolarity,Positive*%
%FSLAX45Y45*%
G04 Gerber Fmt 4.5, Leading zero omitted, Abs format (unit mm)*
G04 Created by KiCad (PCBNEW (6.0.7-1)-1) date 2022-09-20 14:46:52*
%MOMM*%
%LPD*%
G01*
G04 APERTURE LIST*
%ADD10C,0.100000*%
%ADD11C,0.150000*%
%ADD12C,0.200000*%
%ADD13C,0.065000*%
G04 APERTURE END LIST*
D10*
X5300000Y-8750000D02*
X12749320Y-8745918D01*
X5000000Y-8450000D02*
G75*
G03*
X5300000Y-8750000I300000J0D01*
G01*
X5300000Y-3750000D02*
G75*
G03*
X5000000Y-4050000I0J-300000D01*
G01*
X5000000Y-4050000D02*
X5000000Y-8450000D01*
X5300000Y-3750000D02*
X12700000Y-3750000D01*
D11*
X13000000Y-4050000D02*
G75*
G03*
X12700000Y-3750000I-300000J0D01*
G01*
D10*
X13000000Y-8450000D02*
X13000000Y-4050000D01*
X12749320Y-8745918D02*
G75*
G03*
X13000000Y-8450000I-49320J295918D01*
G01*
D12*
D13*
X5635500Y-5928500D02*
X5700500Y-5993500D01*
X5700500Y-5928500D02*
X5635500Y-5993500D01*
X5635500Y-6506500D02*
X5700500Y-6571500D01*
X5700500Y-6506500D02*
X5635500Y-6571500D01*
D12*
X5252619Y-9065476D02*
X5252619Y-8865476D01*
X5300238Y-8865476D01*
X5328810Y-8875000D01*
X5347857Y-8894048D01*
X5357381Y-8913095D01*
X5366905Y-8951190D01*
X5366905Y-8979762D01*
X5357381Y-9017857D01*
X5347857Y-9036905D01*
X5328810Y-9055952D01*
X5300238Y-9065476D01*
X5252619Y-9065476D01*
X5452619Y-9065476D02*
X5452619Y-8932143D01*
X5452619Y-8970238D02*
X5462143Y-8951190D01*
X5471667Y-8941667D01*
X5490714Y-8932143D01*
X5509762Y-8932143D01*
X5576429Y-9065476D02*
X5576429Y-8932143D01*
X5576429Y-8865476D02*
X5566905Y-8875000D01*
X5576429Y-8884524D01*
X5585952Y-8875000D01*
X5576429Y-8865476D01*
X5576429Y-8884524D01*
X5700238Y-9065476D02*
X5681190Y-9055952D01*
X5671667Y-9036905D01*
X5671667Y-8865476D01*
X5805000Y-9065476D02*
X5785952Y-9055952D01*
X5776428Y-9036905D01*
X5776428Y-8865476D01*
X6033571Y-9065476D02*
X6033571Y-8865476D01*
X6100238Y-9008333D01*
X6166905Y-8865476D01*
X6166905Y-9065476D01*
X6347857Y-9065476D02*
X6347857Y-8960714D01*
X6338333Y-8941667D01*
X6319286Y-8932143D01*
X6281190Y-8932143D01*
X6262143Y-8941667D01*
X6347857Y-9055952D02*
X6328809Y-9065476D01*
X6281190Y-9065476D01*
X6262143Y-9055952D01*
X6252619Y-9036905D01*
X6252619Y-9017857D01*
X6262143Y-8998810D01*
X6281190Y-8989286D01*
X6328809Y-8989286D01*
X6347857Y-8979762D01*
X6443095Y-8932143D02*
X6443095Y-9132143D01*
X6443095Y-8941667D02*
X6462143Y-8932143D01*
X6500238Y-8932143D01*
X6519286Y-8941667D01*
X6528809Y-8951190D01*
X6538333Y-8970238D01*
X6538333Y-9027381D01*
X6528809Y-9046429D01*
X6519286Y-9055952D01*
X6500238Y-9065476D01*
X6462143Y-9065476D01*
X6443095Y-9055952D01*
X6624048Y-9046429D02*
X6633571Y-9055952D01*
X6624048Y-9065476D01*
X6614524Y-9055952D01*
X6624048Y-9046429D01*
X6624048Y-9065476D01*
X6624048Y-8941667D02*
X6633571Y-8951190D01*
X6624048Y-8960714D01*
X6614524Y-8951190D01*
X6624048Y-8941667D01*
X6624048Y-8960714D01*
D13*
X4930000Y-9362500D02*
X4995000Y-9427500D01*
X4995000Y-9362500D02*
X4930000Y-9427500D01*
D12*
X5290714Y-9285476D02*
X5309762Y-9285476D01*
X5328810Y-9295000D01*
X5338333Y-9304524D01*
X5347857Y-9323571D01*
X5357381Y-9361667D01*
X5357381Y-9409286D01*
X5347857Y-9447381D01*
X5338333Y-9466429D01*
X5328810Y-9475952D01*
X5309762Y-9485476D01*
X5290714Y-9485476D01*
X5271667Y-9475952D01*
X5262143Y-9466429D01*
X5252619Y-9447381D01*
X5243095Y-9409286D01*
X5243095Y-9361667D01*
X5252619Y-9323571D01*
X5262143Y-9304524D01*
X5271667Y-9295000D01*
X5290714Y-9285476D01*
X5443095Y-9466429D02*
X5452619Y-9475952D01*
X5443095Y-9485476D01*
X5433571Y-9475952D01*
X5443095Y-9466429D01*
X5443095Y-9485476D01*
X5624048Y-9285476D02*
X5585952Y-9285476D01*
X5566905Y-9295000D01*
X5557381Y-9304524D01*
X5538333Y-9333095D01*
X5528810Y-9371190D01*
X5528810Y-9447381D01*
X5538333Y-9466429D01*
X5547857Y-9475952D01*
X5566905Y-9485476D01*
X5605000Y-9485476D01*
X5624048Y-9475952D01*
X5633571Y-9466429D01*
X5643095Y-9447381D01*
X5643095Y-9399762D01*
X5633571Y-9380714D01*
X5624048Y-9371190D01*
X5605000Y-9361667D01*
X5566905Y-9361667D01*
X5547857Y-9371190D01*
X5538333Y-9380714D01*
X5528810Y-9399762D01*
X5824048Y-9285476D02*
X5728809Y-9285476D01*
X5719286Y-9380714D01*
X5728809Y-9371190D01*
X5747857Y-9361667D01*
X5795476Y-9361667D01*
X5814524Y-9371190D01*
X5824048Y-9380714D01*
X5833571Y-9399762D01*
X5833571Y-9447381D01*
X5824048Y-9466429D01*
X5814524Y-9475952D01*
X5795476Y-9485476D01*
X5747857Y-9485476D01*
X5728809Y-9475952D01*
X5719286Y-9466429D01*
X5957381Y-9285476D02*
X5976428Y-9285476D01*
X5995476Y-9295000D01*
X6005000Y-9304524D01*
X6014524Y-9323571D01*
X6024048Y-9361667D01*
X6024048Y-9409286D01*
X6014524Y-9447381D01*
X6005000Y-9466429D01*
X5995476Y-9475952D01*
X5976428Y-9485476D01*
X5957381Y-9485476D01*
X5938333Y-9475952D01*
X5928809Y-9466429D01*
X5919286Y-9447381D01*
X5909762Y-9409286D01*
X5909762Y-9361667D01*
X5919286Y-9323571D01*
X5928809Y-9304524D01*
X5938333Y-9295000D01*
X5957381Y-9285476D01*
X6109762Y-9485476D02*
X6109762Y-9352143D01*
X6109762Y-9371190D02*
X6119286Y-9361667D01*
X6138333Y-9352143D01*
X6166905Y-9352143D01*
X6185952Y-9361667D01*
X6195476Y-9380714D01*
X6195476Y-9485476D01*
X6195476Y-9380714D02*
X6205000Y-9361667D01*
X6224048Y-9352143D01*
X6252619Y-9352143D01*
X6271667Y-9361667D01*
X6281190Y-9380714D01*
X6281190Y-9485476D01*
X6376428Y-9485476D02*
X6376428Y-9352143D01*
X6376428Y-9371190D02*
X6385952Y-9361667D01*
X6405000Y-9352143D01*
X6433571Y-9352143D01*
X6452619Y-9361667D01*
X6462143Y-9380714D01*
X6462143Y-9485476D01*
X6462143Y-9380714D02*
X6471667Y-9361667D01*
X6490714Y-9352143D01*
X6519286Y-9352143D01*
X6538333Y-9361667D01*
X6547857Y-9380714D01*
X6547857Y-9485476D01*
X6938333Y-9275952D02*
X6766905Y-9533095D01*
X7195476Y-9285476D02*
X7214524Y-9285476D01*
X7233571Y-9295000D01*
X7243095Y-9304524D01*
X7252619Y-9323571D01*
X7262143Y-9361667D01*
X7262143Y-9409286D01*
X7252619Y-9447381D01*
X7243095Y-9466429D01*
X7233571Y-9475952D01*
X7214524Y-9485476D01*
X7195476Y-9485476D01*
X7176428Y-9475952D01*
X7166905Y-9466429D01*
X7157381Y-9447381D01*
X7147857Y-9409286D01*
X7147857Y-9361667D01*
X7157381Y-9323571D01*
X7166905Y-9304524D01*
X7176428Y-9295000D01*
X7195476Y-9285476D01*
X7347857Y-9466429D02*
X7357381Y-9475952D01*
X7347857Y-9485476D01*
X7338333Y-9475952D01*
X7347857Y-9466429D01*
X7347857Y-9485476D01*
X7481190Y-9285476D02*
X7500238Y-9285476D01*
X7519286Y-9295000D01*
X7528809Y-9304524D01*
X7538333Y-9323571D01*
X7547857Y-9361667D01*
X7547857Y-9409286D01*
X7538333Y-9447381D01*
X7528809Y-9466429D01*
X7519286Y-9475952D01*
X7500238Y-9485476D01*
X7481190Y-9485476D01*
X7462143Y-9475952D01*
X7452619Y-9466429D01*
X7443095Y-9447381D01*
X7433571Y-9409286D01*
X7433571Y-9361667D01*
X7443095Y-9323571D01*
X7452619Y-9304524D01*
X7462143Y-9295000D01*
X7481190Y-9285476D01*
X7624048Y-9304524D02*
X7633571Y-9295000D01*
X7652619Y-9285476D01*
X7700238Y-9285476D01*
X7719286Y-9295000D01*
X7728809Y-9304524D01*
X7738333Y-9323571D01*
X7738333Y-9342619D01*
X7728809Y-9371190D01*
X7614524Y-9485476D01*
X7738333Y-9485476D01*
X7919286Y-9285476D02*
X7824048Y-9285476D01*
X7814524Y-9380714D01*
X7824048Y-9371190D01*
X7843095Y-9361667D01*
X7890714Y-9361667D01*
X7909762Y-9371190D01*
X7919286Y-9380714D01*
X7928809Y-9399762D01*
X7928809Y-9447381D01*
X7919286Y-9466429D01*
X7909762Y-9475952D01*
X7890714Y-9485476D01*
X7843095Y-9485476D01*
X7824048Y-9475952D01*
X7814524Y-9466429D01*
X8100238Y-9285476D02*
X8062143Y-9285476D01*
X8043095Y-9295000D01*
X8033571Y-9304524D01*
X8014524Y-9333095D01*
X8005000Y-9371190D01*
X8005000Y-9447381D01*
X8014524Y-9466429D01*
X8024048Y-9475952D01*
X8043095Y-9485476D01*
X8081190Y-9485476D01*
X8100238Y-9475952D01*
X8109762Y-9466429D01*
X8119286Y-9447381D01*
X8119286Y-9399762D01*
X8109762Y-9380714D01*
X8100238Y-9371190D01*
X8081190Y-9361667D01*
X8043095Y-9361667D01*
X8024048Y-9371190D01*
X8014524Y-9380714D01*
X8005000Y-9399762D01*
X8195476Y-9285476D02*
X8195476Y-9323571D01*
X8271667Y-9285476D02*
X8271667Y-9323571D01*
X8566905Y-9561667D02*
X8557381Y-9552143D01*
X8538333Y-9523571D01*
X8528810Y-9504524D01*
X8519286Y-9475952D01*
X8509762Y-9428333D01*
X8509762Y-9390238D01*
X8519286Y-9342619D01*
X8528810Y-9314048D01*
X8538333Y-9295000D01*
X8557381Y-9266429D01*
X8566905Y-9256905D01*
X8633571Y-9304524D02*
X8643095Y-9295000D01*
X8662143Y-9285476D01*
X8709762Y-9285476D01*
X8728810Y-9295000D01*
X8738333Y-9304524D01*
X8747857Y-9323571D01*
X8747857Y-9342619D01*
X8738333Y-9371190D01*
X8624048Y-9485476D01*
X8747857Y-9485476D01*
X8985952Y-9485476D02*
X8985952Y-9285476D01*
X9071667Y-9485476D02*
X9071667Y-9380714D01*
X9062143Y-9361667D01*
X9043095Y-9352143D01*
X9014524Y-9352143D01*
X8995476Y-9361667D01*
X8985952Y-9371190D01*
X9195476Y-9485476D02*
X9176429Y-9475952D01*
X9166905Y-9466429D01*
X9157381Y-9447381D01*
X9157381Y-9390238D01*
X9166905Y-9371190D01*
X9176429Y-9361667D01*
X9195476Y-9352143D01*
X9224048Y-9352143D01*
X9243095Y-9361667D01*
X9252619Y-9371190D01*
X9262143Y-9390238D01*
X9262143Y-9447381D01*
X9252619Y-9466429D01*
X9243095Y-9475952D01*
X9224048Y-9485476D01*
X9195476Y-9485476D01*
X9376429Y-9485476D02*
X9357381Y-9475952D01*
X9347857Y-9456905D01*
X9347857Y-9285476D01*
X9528810Y-9475952D02*
X9509762Y-9485476D01*
X9471667Y-9485476D01*
X9452619Y-9475952D01*
X9443095Y-9456905D01*
X9443095Y-9380714D01*
X9452619Y-9361667D01*
X9471667Y-9352143D01*
X9509762Y-9352143D01*
X9528810Y-9361667D01*
X9538333Y-9380714D01*
X9538333Y-9399762D01*
X9443095Y-9418810D01*
X9614524Y-9475952D02*
X9633571Y-9485476D01*
X9671667Y-9485476D01*
X9690714Y-9475952D01*
X9700238Y-9456905D01*
X9700238Y-9447381D01*
X9690714Y-9428333D01*
X9671667Y-9418810D01*
X9643095Y-9418810D01*
X9624048Y-9409286D01*
X9614524Y-9390238D01*
X9614524Y-9380714D01*
X9624048Y-9361667D01*
X9643095Y-9352143D01*
X9671667Y-9352143D01*
X9690714Y-9361667D01*
X9766905Y-9561667D02*
X9776429Y-9552143D01*
X9795476Y-9523571D01*
X9805000Y-9504524D01*
X9814524Y-9475952D01*
X9824048Y-9428333D01*
X9824048Y-9390238D01*
X9814524Y-9342619D01*
X9805000Y-9314048D01*
X9795476Y-9295000D01*
X9776429Y-9266429D01*
X9766905Y-9256905D01*
X10128810Y-9561667D02*
X10119286Y-9552143D01*
X10100238Y-9523571D01*
X10090714Y-9504524D01*
X10081190Y-9475952D01*
X10071667Y-9428333D01*
X10071667Y-9390238D01*
X10081190Y-9342619D01*
X10090714Y-9314048D01*
X10100238Y-9295000D01*
X10119286Y-9266429D01*
X10128810Y-9256905D01*
X10205000Y-9352143D02*
X10205000Y-9485476D01*
X10205000Y-9371190D02*
X10214524Y-9361667D01*
X10233571Y-9352143D01*
X10262143Y-9352143D01*
X10281190Y-9361667D01*
X10290714Y-9380714D01*
X10290714Y-9485476D01*
X10414524Y-9485476D02*
X10395476Y-9475952D01*
X10385952Y-9466429D01*
X10376429Y-9447381D01*
X10376429Y-9390238D01*
X10385952Y-9371190D01*
X10395476Y-9361667D01*
X10414524Y-9352143D01*
X10443095Y-9352143D01*
X10462143Y-9361667D01*
X10471667Y-9371190D01*
X10481190Y-9390238D01*
X10481190Y-9447381D01*
X10471667Y-9466429D01*
X10462143Y-9475952D01*
X10443095Y-9485476D01*
X10414524Y-9485476D01*
X10538333Y-9352143D02*
X10614524Y-9352143D01*
X10566905Y-9285476D02*
X10566905Y-9456905D01*
X10576429Y-9475952D01*
X10595476Y-9485476D01*
X10614524Y-9485476D01*
X10833571Y-9352143D02*
X10833571Y-9552143D01*
X10833571Y-9361667D02*
X10852619Y-9352143D01*
X10890714Y-9352143D01*
X10909762Y-9361667D01*
X10919286Y-9371190D01*
X10928810Y-9390238D01*
X10928810Y-9447381D01*
X10919286Y-9466429D01*
X10909762Y-9475952D01*
X10890714Y-9485476D01*
X10852619Y-9485476D01*
X10833571Y-9475952D01*
X11043095Y-9485476D02*
X11024048Y-9475952D01*
X11014524Y-9456905D01*
X11014524Y-9285476D01*
X11205000Y-9485476D02*
X11205000Y-9380714D01*
X11195476Y-9361667D01*
X11176429Y-9352143D01*
X11138333Y-9352143D01*
X11119286Y-9361667D01*
X11205000Y-9475952D02*
X11185952Y-9485476D01*
X11138333Y-9485476D01*
X11119286Y-9475952D01*
X11109762Y-9456905D01*
X11109762Y-9437857D01*
X11119286Y-9418810D01*
X11138333Y-9409286D01*
X11185952Y-9409286D01*
X11205000Y-9399762D01*
X11271667Y-9352143D02*
X11347857Y-9352143D01*
X11300238Y-9285476D02*
X11300238Y-9456905D01*
X11309762Y-9475952D01*
X11328809Y-9485476D01*
X11347857Y-9485476D01*
X11490714Y-9475952D02*
X11471667Y-9485476D01*
X11433571Y-9485476D01*
X11414524Y-9475952D01*
X11405000Y-9456905D01*
X11405000Y-9380714D01*
X11414524Y-9361667D01*
X11433571Y-9352143D01*
X11471667Y-9352143D01*
X11490714Y-9361667D01*
X11500238Y-9380714D01*
X11500238Y-9399762D01*
X11405000Y-9418810D01*
X11671667Y-9485476D02*
X11671667Y-9285476D01*
X11671667Y-9475952D02*
X11652619Y-9485476D01*
X11614524Y-9485476D01*
X11595476Y-9475952D01*
X11585952Y-9466429D01*
X11576428Y-9447381D01*
X11576428Y-9390238D01*
X11585952Y-9371190D01*
X11595476Y-9361667D01*
X11614524Y-9352143D01*
X11652619Y-9352143D01*
X11671667Y-9361667D01*
X11747857Y-9561667D02*
X11757381Y-9552143D01*
X11776428Y-9523571D01*
X11785952Y-9504524D01*
X11795476Y-9475952D01*
X11805000Y-9428333D01*
X11805000Y-9390238D01*
X11795476Y-9342619D01*
X11785952Y-9314048D01*
X11776428Y-9295000D01*
X11757381Y-9266429D01*
X11747857Y-9256905D01*
M02*
