%TF.GenerationSoftware,KiCad,Pcbnew,(6.0.7-1)-1*%
%TF.CreationDate,2022-09-20T14:46:45+12:00*%
%TF.ProjectId,ENEL300Group10MCUBoard,454e454c-3330-4304-9772-6f757031304d,rev?*%
%TF.SameCoordinates,Original*%
%TF.FileFunction,Soldermask,Bot*%
%TF.FilePolarity,Negative*%
%FSLAX46Y46*%
G04 Gerber Fmt 4.6, Leading zero omitted, Abs format (unit mm)*
G04 Created by KiCad (PCBNEW (6.0.7-1)-1) date 2022-09-20 14:46:45*
%MOMM*%
%LPD*%
G01*
G04 APERTURE LIST*
%ADD10C,1.600000*%
%ADD11O,1.600000X1.600000*%
%ADD12C,0.650000*%
%ADD13O,2.100000X1.050000*%
%ADD14O,2.000000X1.000000*%
%ADD15C,2.100000*%
%ADD16C,1.750000*%
%ADD17O,1.700000X1.700000*%
%ADD18R,1.700000X1.700000*%
%ADD19R,1.800000X1.800000*%
%ADD20C,1.800000*%
%ADD21C,1.500000*%
G04 APERTURE END LIST*
D10*
%TO.C,R4*%
X80880000Y-71100000D03*
D11*
X96120000Y-71100000D03*
%TD*%
D12*
%TO.C,J1*%
X56680000Y-65390000D03*
X56680000Y-59610000D03*
D13*
X57180000Y-58180000D03*
D14*
X53000000Y-58180000D03*
X53000000Y-66820000D03*
D13*
X57180000Y-66820000D03*
%TD*%
D15*
%TO.C,RESET1*%
X55352500Y-81025000D03*
X55352500Y-74015000D03*
D16*
X52862500Y-79775000D03*
X52862500Y-75275000D03*
%TD*%
D17*
%TO.C,WIRELESS1*%
X69000000Y-85540000D03*
D18*
X69000000Y-83000000D03*
D17*
X71540000Y-85540000D03*
X71540000Y-83000000D03*
X74080000Y-85540000D03*
X74080000Y-83000000D03*
X76620000Y-85540000D03*
X76620000Y-83000000D03*
%TD*%
D19*
%TO.C,PWR1*%
X52500000Y-53500000D03*
D20*
X52500000Y-50960000D03*
%TD*%
D21*
%TO.C,Y1*%
X104550000Y-75000000D03*
X99650000Y-75000000D03*
%TD*%
D18*
%TO.C,GPIO2*%
X86000000Y-40000000D03*
D17*
X88540000Y-40000000D03*
X91080000Y-40000000D03*
X93620000Y-40000000D03*
X96160000Y-40000000D03*
X98700000Y-40000000D03*
X101240000Y-40000000D03*
X103780000Y-40000000D03*
X106320000Y-40000000D03*
X108860000Y-40000000D03*
X111400000Y-40000000D03*
X113940000Y-40000000D03*
X116480000Y-40000000D03*
X119020000Y-40000000D03*
X121560000Y-40000000D03*
%TD*%
D18*
%TO.C,J2*%
X88000000Y-85000000D03*
D17*
X90540000Y-85000000D03*
X93080000Y-85000000D03*
X95620000Y-85000000D03*
%TD*%
D18*
%TO.C,GPIO1*%
X110000000Y-84975000D03*
D17*
X112540000Y-84975000D03*
X115080000Y-84975000D03*
X117620000Y-84975000D03*
X120160000Y-84975000D03*
X122700000Y-84975000D03*
X125240000Y-84975000D03*
%TD*%
M02*
