%TF.GenerationSoftware,KiCad,Pcbnew,(6.0.7-1)-1*%
%TF.CreationDate,2022-09-20T14:46:44+12:00*%
%TF.ProjectId,ENEL300Group10MCUBoard,454e454c-3330-4304-9772-6f757031304d,rev?*%
%TF.SameCoordinates,Original*%
%TF.FileFunction,Legend,Top*%
%TF.FilePolarity,Positive*%
%FSLAX46Y46*%
G04 Gerber Fmt 4.6, Leading zero omitted, Abs format (unit mm)*
G04 Created by KiCad (PCBNEW (6.0.7-1)-1) date 2022-09-20 14:46:44*
%MOMM*%
%LPD*%
G01*
G04 APERTURE LIST*
%ADD10C,0.150000*%
%ADD11C,0.300000*%
%ADD12C,0.200000*%
%ADD13C,0.120000*%
G04 APERTURE END LIST*
D10*
X92825000Y-42739285D02*
X92825000Y-41989285D01*
X93110714Y-41989285D01*
X93182142Y-42025000D01*
X93217857Y-42060714D01*
X93253571Y-42132142D01*
X93253571Y-42239285D01*
X93217857Y-42310714D01*
X93182142Y-42346428D01*
X93110714Y-42382142D01*
X92825000Y-42382142D01*
X93825000Y-42346428D02*
X93575000Y-42346428D01*
X93575000Y-42739285D02*
X93575000Y-41989285D01*
X93932142Y-41989285D01*
X94539285Y-42239285D02*
X94539285Y-42739285D01*
X94360714Y-41953571D02*
X94182142Y-42489285D01*
X94646428Y-42489285D01*
X119271428Y-82939285D02*
X119271428Y-82189285D01*
X119557142Y-82189285D01*
X119628571Y-82225000D01*
X119664285Y-82260714D01*
X119700000Y-82332142D01*
X119700000Y-82439285D01*
X119664285Y-82510714D01*
X119628571Y-82546428D01*
X119557142Y-82582142D01*
X119271428Y-82582142D01*
X120021428Y-82939285D02*
X120021428Y-82189285D01*
X120200000Y-82189285D01*
X120307142Y-82225000D01*
X120378571Y-82296428D01*
X120414285Y-82367857D01*
X120450000Y-82510714D01*
X120450000Y-82617857D01*
X120414285Y-82760714D01*
X120378571Y-82832142D01*
X120307142Y-82903571D01*
X120200000Y-82939285D01*
X120021428Y-82939285D01*
X120735714Y-82260714D02*
X120771428Y-82225000D01*
X120842857Y-82189285D01*
X121021428Y-82189285D01*
X121092857Y-82225000D01*
X121128571Y-82260714D01*
X121164285Y-82332142D01*
X121164285Y-82403571D01*
X121128571Y-82510714D01*
X120700000Y-82939285D01*
X121164285Y-82939285D01*
D11*
X56878571Y-53900000D02*
X55378571Y-53900000D01*
X55378571Y-53328571D01*
X55450000Y-53185714D01*
X55521428Y-53114285D01*
X55664285Y-53042857D01*
X55878571Y-53042857D01*
X56021428Y-53114285D01*
X56092857Y-53185714D01*
X56164285Y-53328571D01*
X56164285Y-53900000D01*
X55378571Y-52542857D02*
X56878571Y-52185714D01*
X55807142Y-51900000D01*
X56878571Y-51614285D01*
X55378571Y-51257142D01*
X56878571Y-49828571D02*
X56164285Y-50328571D01*
X56878571Y-50685714D02*
X55378571Y-50685714D01*
X55378571Y-50114285D01*
X55450000Y-49971428D01*
X55521428Y-49900000D01*
X55664285Y-49828571D01*
X55878571Y-49828571D01*
X56021428Y-49900000D01*
X56092857Y-49971428D01*
X56164285Y-50114285D01*
X56164285Y-50685714D01*
D10*
X102971428Y-42739285D02*
X102971428Y-41989285D01*
X103257142Y-41989285D01*
X103328571Y-42025000D01*
X103364285Y-42060714D01*
X103400000Y-42132142D01*
X103400000Y-42239285D01*
X103364285Y-42310714D01*
X103328571Y-42346428D01*
X103257142Y-42382142D01*
X102971428Y-42382142D01*
X104150000Y-42667857D02*
X104114285Y-42703571D01*
X104007142Y-42739285D01*
X103935714Y-42739285D01*
X103828571Y-42703571D01*
X103757142Y-42632142D01*
X103721428Y-42560714D01*
X103685714Y-42417857D01*
X103685714Y-42310714D01*
X103721428Y-42167857D01*
X103757142Y-42096428D01*
X103828571Y-42025000D01*
X103935714Y-41989285D01*
X104007142Y-41989285D01*
X104114285Y-42025000D01*
X104150000Y-42060714D01*
X104400000Y-41989285D02*
X104900000Y-41989285D01*
X104578571Y-42739285D01*
X120671428Y-42739285D02*
X120671428Y-41989285D01*
X120957142Y-41989285D01*
X121028571Y-42025000D01*
X121064285Y-42060714D01*
X121100000Y-42132142D01*
X121100000Y-42239285D01*
X121064285Y-42310714D01*
X121028571Y-42346428D01*
X120957142Y-42382142D01*
X120671428Y-42382142D01*
X121421428Y-42739285D02*
X121421428Y-41989285D01*
X121600000Y-41989285D01*
X121707142Y-42025000D01*
X121778571Y-42096428D01*
X121814285Y-42167857D01*
X121850000Y-42310714D01*
X121850000Y-42417857D01*
X121814285Y-42560714D01*
X121778571Y-42632142D01*
X121707142Y-42703571D01*
X121600000Y-42739285D01*
X121421428Y-42739285D01*
X122492857Y-42239285D02*
X122492857Y-42739285D01*
X122314285Y-41953571D02*
X122135714Y-42489285D01*
X122600000Y-42489285D01*
X112971428Y-42739285D02*
X112971428Y-41989285D01*
X113257142Y-41989285D01*
X113328571Y-42025000D01*
X113364285Y-42060714D01*
X113400000Y-42132142D01*
X113400000Y-42239285D01*
X113364285Y-42310714D01*
X113328571Y-42346428D01*
X113257142Y-42382142D01*
X112971428Y-42382142D01*
X113971428Y-42346428D02*
X114078571Y-42382142D01*
X114114285Y-42417857D01*
X114150000Y-42489285D01*
X114150000Y-42596428D01*
X114114285Y-42667857D01*
X114078571Y-42703571D01*
X114007142Y-42739285D01*
X113721428Y-42739285D01*
X113721428Y-41989285D01*
X113971428Y-41989285D01*
X114042857Y-42025000D01*
X114078571Y-42060714D01*
X114114285Y-42132142D01*
X114114285Y-42203571D01*
X114078571Y-42275000D01*
X114042857Y-42310714D01*
X113971428Y-42346428D01*
X113721428Y-42346428D01*
X114792857Y-42239285D02*
X114792857Y-42739285D01*
X114614285Y-41953571D02*
X114435714Y-42489285D01*
X114900000Y-42489285D01*
X90225000Y-42739285D02*
X90225000Y-41989285D01*
X90510714Y-41989285D01*
X90582142Y-42025000D01*
X90617857Y-42060714D01*
X90653571Y-42132142D01*
X90653571Y-42239285D01*
X90617857Y-42310714D01*
X90582142Y-42346428D01*
X90510714Y-42382142D01*
X90225000Y-42382142D01*
X91225000Y-42346428D02*
X90975000Y-42346428D01*
X90975000Y-42739285D02*
X90975000Y-41989285D01*
X91332142Y-41989285D01*
X92010714Y-42739285D02*
X91582142Y-42739285D01*
X91796428Y-42739285D02*
X91796428Y-41989285D01*
X91725000Y-42096428D01*
X91653571Y-42167857D01*
X91582142Y-42203571D01*
X118071428Y-42739285D02*
X118071428Y-41989285D01*
X118357142Y-41989285D01*
X118428571Y-42025000D01*
X118464285Y-42060714D01*
X118500000Y-42132142D01*
X118500000Y-42239285D01*
X118464285Y-42310714D01*
X118428571Y-42346428D01*
X118357142Y-42382142D01*
X118071428Y-42382142D01*
X118821428Y-42739285D02*
X118821428Y-41989285D01*
X119000000Y-41989285D01*
X119107142Y-42025000D01*
X119178571Y-42096428D01*
X119214285Y-42167857D01*
X119250000Y-42310714D01*
X119250000Y-42417857D01*
X119214285Y-42560714D01*
X119178571Y-42632142D01*
X119107142Y-42703571D01*
X119000000Y-42739285D01*
X118821428Y-42739285D01*
X119892857Y-41989285D02*
X119750000Y-41989285D01*
X119678571Y-42025000D01*
X119642857Y-42060714D01*
X119571428Y-42167857D01*
X119535714Y-42310714D01*
X119535714Y-42596428D01*
X119571428Y-42667857D01*
X119607142Y-42703571D01*
X119678571Y-42739285D01*
X119821428Y-42739285D01*
X119892857Y-42703571D01*
X119928571Y-42667857D01*
X119964285Y-42596428D01*
X119964285Y-42417857D01*
X119928571Y-42346428D01*
X119892857Y-42310714D01*
X119821428Y-42275000D01*
X119678571Y-42275000D01*
X119607142Y-42310714D01*
X119571428Y-42346428D01*
X119535714Y-42417857D01*
X124371428Y-82939285D02*
X124371428Y-82189285D01*
X124657142Y-82189285D01*
X124728571Y-82225000D01*
X124764285Y-82260714D01*
X124800000Y-82332142D01*
X124800000Y-82439285D01*
X124764285Y-82510714D01*
X124728571Y-82546428D01*
X124657142Y-82582142D01*
X124371428Y-82582142D01*
X125121428Y-82939285D02*
X125121428Y-82189285D01*
X125300000Y-82189285D01*
X125407142Y-82225000D01*
X125478571Y-82296428D01*
X125514285Y-82367857D01*
X125550000Y-82510714D01*
X125550000Y-82617857D01*
X125514285Y-82760714D01*
X125478571Y-82832142D01*
X125407142Y-82903571D01*
X125300000Y-82939285D01*
X125121428Y-82939285D01*
X126228571Y-82189285D02*
X125871428Y-82189285D01*
X125835714Y-82546428D01*
X125871428Y-82510714D01*
X125942857Y-82475000D01*
X126121428Y-82475000D01*
X126192857Y-82510714D01*
X126228571Y-82546428D01*
X126264285Y-82617857D01*
X126264285Y-82796428D01*
X126228571Y-82867857D01*
X126192857Y-82903571D01*
X126121428Y-82939285D01*
X125942857Y-82939285D01*
X125871428Y-82903571D01*
X125835714Y-82867857D01*
X95425000Y-42739285D02*
X95425000Y-41989285D01*
X95710714Y-41989285D01*
X95782142Y-42025000D01*
X95817857Y-42060714D01*
X95853571Y-42132142D01*
X95853571Y-42239285D01*
X95817857Y-42310714D01*
X95782142Y-42346428D01*
X95710714Y-42382142D01*
X95425000Y-42382142D01*
X96425000Y-42346428D02*
X96175000Y-42346428D01*
X96175000Y-42739285D02*
X96175000Y-41989285D01*
X96532142Y-41989285D01*
X97175000Y-41989285D02*
X96817857Y-41989285D01*
X96782142Y-42346428D01*
X96817857Y-42310714D01*
X96889285Y-42275000D01*
X97067857Y-42275000D01*
X97139285Y-42310714D01*
X97175000Y-42346428D01*
X97210714Y-42417857D01*
X97210714Y-42596428D01*
X97175000Y-42667857D01*
X97139285Y-42703571D01*
X97067857Y-42739285D01*
X96889285Y-42739285D01*
X96817857Y-42703571D01*
X96782142Y-42667857D01*
X87671428Y-42525000D02*
X88028571Y-42525000D01*
X87600000Y-42739285D02*
X87850000Y-41989285D01*
X88100000Y-42739285D01*
X88350000Y-42739285D02*
X88350000Y-41989285D01*
X88528571Y-41989285D01*
X88635714Y-42025000D01*
X88707142Y-42096428D01*
X88742857Y-42167857D01*
X88778571Y-42310714D01*
X88778571Y-42417857D01*
X88742857Y-42560714D01*
X88707142Y-42632142D01*
X88635714Y-42703571D01*
X88528571Y-42739285D01*
X88350000Y-42739285D01*
X89528571Y-42667857D02*
X89492857Y-42703571D01*
X89385714Y-42739285D01*
X89314285Y-42739285D01*
X89207142Y-42703571D01*
X89135714Y-42632142D01*
X89100000Y-42560714D01*
X89064285Y-42417857D01*
X89064285Y-42310714D01*
X89100000Y-42167857D01*
X89135714Y-42096428D01*
X89207142Y-42025000D01*
X89314285Y-41989285D01*
X89385714Y-41989285D01*
X89492857Y-42025000D01*
X89528571Y-42060714D01*
X109328571Y-82225000D02*
X109257142Y-82189285D01*
X109150000Y-82189285D01*
X109042857Y-82225000D01*
X108971428Y-82296428D01*
X108935714Y-82367857D01*
X108900000Y-82510714D01*
X108900000Y-82617857D01*
X108935714Y-82760714D01*
X108971428Y-82832142D01*
X109042857Y-82903571D01*
X109150000Y-82939285D01*
X109221428Y-82939285D01*
X109328571Y-82903571D01*
X109364285Y-82867857D01*
X109364285Y-82617857D01*
X109221428Y-82617857D01*
X109685714Y-82939285D02*
X109685714Y-82189285D01*
X110114285Y-82939285D01*
X110114285Y-82189285D01*
X110471428Y-82939285D02*
X110471428Y-82189285D01*
X110650000Y-82189285D01*
X110757142Y-82225000D01*
X110828571Y-82296428D01*
X110864285Y-82367857D01*
X110900000Y-82510714D01*
X110900000Y-82617857D01*
X110864285Y-82760714D01*
X110828571Y-82832142D01*
X110757142Y-82903571D01*
X110650000Y-82939285D01*
X110471428Y-82939285D01*
D11*
X59578571Y-79778571D02*
X58864285Y-80278571D01*
X59578571Y-80635714D02*
X58078571Y-80635714D01*
X58078571Y-80064285D01*
X58150000Y-79921428D01*
X58221428Y-79850000D01*
X58364285Y-79778571D01*
X58578571Y-79778571D01*
X58721428Y-79850000D01*
X58792857Y-79921428D01*
X58864285Y-80064285D01*
X58864285Y-80635714D01*
X58792857Y-79135714D02*
X58792857Y-78635714D01*
X59578571Y-78421428D02*
X59578571Y-79135714D01*
X58078571Y-79135714D01*
X58078571Y-78421428D01*
X59507142Y-77850000D02*
X59578571Y-77635714D01*
X59578571Y-77278571D01*
X59507142Y-77135714D01*
X59435714Y-77064285D01*
X59292857Y-76992857D01*
X59150000Y-76992857D01*
X59007142Y-77064285D01*
X58935714Y-77135714D01*
X58864285Y-77278571D01*
X58792857Y-77564285D01*
X58721428Y-77707142D01*
X58650000Y-77778571D01*
X58507142Y-77850000D01*
X58364285Y-77850000D01*
X58221428Y-77778571D01*
X58150000Y-77707142D01*
X58078571Y-77564285D01*
X58078571Y-77207142D01*
X58150000Y-76992857D01*
X58792857Y-76350000D02*
X58792857Y-75850000D01*
X59578571Y-75635714D02*
X59578571Y-76350000D01*
X58078571Y-76350000D01*
X58078571Y-75635714D01*
X58078571Y-75207142D02*
X58078571Y-74350000D01*
X59578571Y-74778571D02*
X58078571Y-74778571D01*
D10*
X96202380Y-82202380D02*
X95726190Y-82535714D01*
X96202380Y-82773809D02*
X95202380Y-82773809D01*
X95202380Y-82392857D01*
X95250000Y-82297619D01*
X95297619Y-82250000D01*
X95392857Y-82202380D01*
X95535714Y-82202380D01*
X95630952Y-82250000D01*
X95678571Y-82297619D01*
X95726190Y-82392857D01*
X95726190Y-82773809D01*
X95678571Y-81773809D02*
X95678571Y-81440476D01*
X96202380Y-81297619D02*
X96202380Y-81773809D01*
X95202380Y-81773809D01*
X95202380Y-81297619D01*
X96154761Y-80916666D02*
X96202380Y-80773809D01*
X96202380Y-80535714D01*
X96154761Y-80440476D01*
X96107142Y-80392857D01*
X96011904Y-80345238D01*
X95916666Y-80345238D01*
X95821428Y-80392857D01*
X95773809Y-80440476D01*
X95726190Y-80535714D01*
X95678571Y-80726190D01*
X95630952Y-80821428D01*
X95583333Y-80869047D01*
X95488095Y-80916666D01*
X95392857Y-80916666D01*
X95297619Y-80869047D01*
X95250000Y-80821428D01*
X95202380Y-80726190D01*
X95202380Y-80488095D01*
X95250000Y-80345238D01*
X95678571Y-79916666D02*
X95678571Y-79583333D01*
X96202380Y-79440476D02*
X96202380Y-79916666D01*
X95202380Y-79916666D01*
X95202380Y-79440476D01*
X95202380Y-79154761D02*
X95202380Y-78583333D01*
X96202380Y-78869047D02*
X95202380Y-78869047D01*
X112457142Y-80985535D02*
X112100000Y-80985535D01*
X112064285Y-81342678D01*
X112100000Y-81306964D01*
X112171428Y-81271250D01*
X112350000Y-81271250D01*
X112421428Y-81306964D01*
X112457142Y-81342678D01*
X112492857Y-81414107D01*
X112492857Y-81592678D01*
X112457142Y-81664107D01*
X112421428Y-81699821D01*
X112350000Y-81735535D01*
X112171428Y-81735535D01*
X112100000Y-81699821D01*
X112064285Y-81664107D01*
X112707142Y-80985535D02*
X112957142Y-81735535D01*
X113207142Y-80985535D01*
X111600000Y-82193035D02*
X111850000Y-82943035D01*
X112100000Y-82193035D01*
X112778571Y-82871607D02*
X112742857Y-82907321D01*
X112635714Y-82943035D01*
X112564285Y-82943035D01*
X112457142Y-82907321D01*
X112385714Y-82835892D01*
X112350000Y-82764464D01*
X112314285Y-82621607D01*
X112314285Y-82514464D01*
X112350000Y-82371607D01*
X112385714Y-82300178D01*
X112457142Y-82228750D01*
X112564285Y-82193035D01*
X112635714Y-82193035D01*
X112742857Y-82228750D01*
X112778571Y-82264464D01*
X113528571Y-82871607D02*
X113492857Y-82907321D01*
X113385714Y-82943035D01*
X113314285Y-82943035D01*
X113207142Y-82907321D01*
X113135714Y-82835892D01*
X113100000Y-82764464D01*
X113064285Y-82621607D01*
X113064285Y-82514464D01*
X113100000Y-82371607D01*
X113135714Y-82300178D01*
X113207142Y-82228750D01*
X113314285Y-82193035D01*
X113385714Y-82193035D01*
X113492857Y-82228750D01*
X113528571Y-82264464D01*
X108071428Y-42739285D02*
X108071428Y-41989285D01*
X108357142Y-41989285D01*
X108428571Y-42025000D01*
X108464285Y-42060714D01*
X108500000Y-42132142D01*
X108500000Y-42239285D01*
X108464285Y-42310714D01*
X108428571Y-42346428D01*
X108357142Y-42382142D01*
X108071428Y-42382142D01*
X109071428Y-42346428D02*
X109178571Y-42382142D01*
X109214285Y-42417857D01*
X109250000Y-42489285D01*
X109250000Y-42596428D01*
X109214285Y-42667857D01*
X109178571Y-42703571D01*
X109107142Y-42739285D01*
X108821428Y-42739285D01*
X108821428Y-41989285D01*
X109071428Y-41989285D01*
X109142857Y-42025000D01*
X109178571Y-42060714D01*
X109214285Y-42132142D01*
X109214285Y-42203571D01*
X109178571Y-42275000D01*
X109142857Y-42310714D01*
X109071428Y-42346428D01*
X108821428Y-42346428D01*
X109892857Y-41989285D02*
X109750000Y-41989285D01*
X109678571Y-42025000D01*
X109642857Y-42060714D01*
X109571428Y-42167857D01*
X109535714Y-42310714D01*
X109535714Y-42596428D01*
X109571428Y-42667857D01*
X109607142Y-42703571D01*
X109678571Y-42739285D01*
X109821428Y-42739285D01*
X109892857Y-42703571D01*
X109928571Y-42667857D01*
X109964285Y-42596428D01*
X109964285Y-42417857D01*
X109928571Y-42346428D01*
X109892857Y-42310714D01*
X109821428Y-42275000D01*
X109678571Y-42275000D01*
X109607142Y-42310714D01*
X109571428Y-42346428D01*
X109535714Y-42417857D01*
D12*
X52080952Y-41161666D02*
X52557142Y-41161666D01*
X51985714Y-41447380D02*
X52319047Y-40447380D01*
X52652380Y-41447380D01*
X52842857Y-40447380D02*
X53414285Y-40447380D01*
X53128571Y-41447380D02*
X53128571Y-40447380D01*
X53747619Y-41447380D02*
X53747619Y-40447380D01*
X54080952Y-41161666D01*
X54414285Y-40447380D01*
X54414285Y-41447380D01*
X54890476Y-40923571D02*
X55223809Y-40923571D01*
X55366666Y-41447380D02*
X54890476Y-41447380D01*
X54890476Y-40447380D01*
X55366666Y-40447380D01*
X56319047Y-40495000D02*
X56223809Y-40447380D01*
X56080952Y-40447380D01*
X55938095Y-40495000D01*
X55842857Y-40590238D01*
X55795238Y-40685476D01*
X55747619Y-40875952D01*
X55747619Y-41018809D01*
X55795238Y-41209285D01*
X55842857Y-41304523D01*
X55938095Y-41399761D01*
X56080952Y-41447380D01*
X56176190Y-41447380D01*
X56319047Y-41399761D01*
X56366666Y-41352142D01*
X56366666Y-41018809D01*
X56176190Y-41018809D01*
X56747619Y-41161666D02*
X57223809Y-41161666D01*
X56652380Y-41447380D02*
X56985714Y-40447380D01*
X57319047Y-41447380D01*
X57557142Y-40447380D02*
X58176190Y-40447380D01*
X57842857Y-40828333D01*
X57985714Y-40828333D01*
X58080952Y-40875952D01*
X58128571Y-40923571D01*
X58176190Y-41018809D01*
X58176190Y-41256904D01*
X58128571Y-41352142D01*
X58080952Y-41399761D01*
X57985714Y-41447380D01*
X57699999Y-41447380D01*
X57604761Y-41399761D01*
X57557142Y-41352142D01*
X58557142Y-40542619D02*
X58604761Y-40495000D01*
X58699999Y-40447380D01*
X58938095Y-40447380D01*
X59033333Y-40495000D01*
X59080952Y-40542619D01*
X59128571Y-40637857D01*
X59128571Y-40733095D01*
X59080952Y-40875952D01*
X58509523Y-41447380D01*
X59128571Y-41447380D01*
X59557142Y-40447380D02*
X59557142Y-41256904D01*
X59604761Y-41352142D01*
X59652380Y-41399761D01*
X59747619Y-41447380D01*
X59938095Y-41447380D01*
X60033333Y-41399761D01*
X60080952Y-41352142D01*
X60128571Y-41256904D01*
X60128571Y-40447380D01*
X61033333Y-40780714D02*
X61033333Y-41447380D01*
X60795238Y-40399761D02*
X60557142Y-41114047D01*
X61176190Y-41114047D01*
X62319047Y-41447380D02*
X62319047Y-40447380D01*
X62557142Y-40447380D01*
X62699999Y-40495000D01*
X62795238Y-40590238D01*
X62842857Y-40685476D01*
X62890476Y-40875952D01*
X62890476Y-41018809D01*
X62842857Y-41209285D01*
X62795238Y-41304523D01*
X62699999Y-41399761D01*
X62557142Y-41447380D01*
X62319047Y-41447380D01*
X63319047Y-40923571D02*
X63652380Y-40923571D01*
X63795238Y-41447380D02*
X63319047Y-41447380D01*
X63319047Y-40447380D01*
X63795238Y-40447380D01*
X64080952Y-40447380D02*
X64414285Y-41447380D01*
X64747619Y-40447380D01*
X66176190Y-40923571D02*
X66319047Y-40971190D01*
X66366666Y-41018809D01*
X66414285Y-41114047D01*
X66414285Y-41256904D01*
X66366666Y-41352142D01*
X66319047Y-41399761D01*
X66223809Y-41447380D01*
X65842857Y-41447380D01*
X65842857Y-40447380D01*
X66176190Y-40447380D01*
X66271428Y-40495000D01*
X66319047Y-40542619D01*
X66366666Y-40637857D01*
X66366666Y-40733095D01*
X66319047Y-40828333D01*
X66271428Y-40875952D01*
X66176190Y-40923571D01*
X65842857Y-40923571D01*
X66985714Y-41447380D02*
X66890476Y-41399761D01*
X66842857Y-41352142D01*
X66795238Y-41256904D01*
X66795238Y-40971190D01*
X66842857Y-40875952D01*
X66890476Y-40828333D01*
X66985714Y-40780714D01*
X67128571Y-40780714D01*
X67223809Y-40828333D01*
X67271428Y-40875952D01*
X67319047Y-40971190D01*
X67319047Y-41256904D01*
X67271428Y-41352142D01*
X67223809Y-41399761D01*
X67128571Y-41447380D01*
X66985714Y-41447380D01*
X68176190Y-41447380D02*
X68176190Y-40923571D01*
X68128571Y-40828333D01*
X68033333Y-40780714D01*
X67842857Y-40780714D01*
X67747619Y-40828333D01*
X68176190Y-41399761D02*
X68080952Y-41447380D01*
X67842857Y-41447380D01*
X67747619Y-41399761D01*
X67700000Y-41304523D01*
X67700000Y-41209285D01*
X67747619Y-41114047D01*
X67842857Y-41066428D01*
X68080952Y-41066428D01*
X68176190Y-41018809D01*
X68652380Y-41447380D02*
X68652380Y-40780714D01*
X68652380Y-40971190D02*
X68700000Y-40875952D01*
X68747619Y-40828333D01*
X68842857Y-40780714D01*
X68938095Y-40780714D01*
X69700000Y-41447380D02*
X69700000Y-40447380D01*
X69700000Y-41399761D02*
X69604761Y-41447380D01*
X69414285Y-41447380D01*
X69319047Y-41399761D01*
X69271428Y-41352142D01*
X69223809Y-41256904D01*
X69223809Y-40971190D01*
X69271428Y-40875952D01*
X69319047Y-40828333D01*
X69414285Y-40780714D01*
X69604761Y-40780714D01*
X69700000Y-40828333D01*
X70795238Y-40447380D02*
X71128571Y-41447380D01*
X71461904Y-40447380D01*
X71747619Y-40542619D02*
X71795238Y-40495000D01*
X71890476Y-40447380D01*
X72128571Y-40447380D01*
X72223809Y-40495000D01*
X72271428Y-40542619D01*
X72319047Y-40637857D01*
X72319047Y-40733095D01*
X72271428Y-40875952D01*
X71699999Y-41447380D01*
X72319047Y-41447380D01*
X58295238Y-43057380D02*
X58295238Y-42057380D01*
X58866666Y-43057380D02*
X58438095Y-42485952D01*
X58866666Y-42057380D02*
X58295238Y-42628809D01*
X59676190Y-43009761D02*
X59580952Y-43057380D01*
X59390476Y-43057380D01*
X59295238Y-43009761D01*
X59247619Y-42914523D01*
X59247619Y-42533571D01*
X59295238Y-42438333D01*
X59390476Y-42390714D01*
X59580952Y-42390714D01*
X59676190Y-42438333D01*
X59723809Y-42533571D01*
X59723809Y-42628809D01*
X59247619Y-42724047D01*
X60152380Y-43057380D02*
X60152380Y-42390714D01*
X60152380Y-42057380D02*
X60104761Y-42105000D01*
X60152380Y-42152619D01*
X60200000Y-42105000D01*
X60152380Y-42057380D01*
X60152380Y-42152619D01*
X61961904Y-42962142D02*
X61914285Y-43009761D01*
X61771428Y-43057380D01*
X61676190Y-43057380D01*
X61533333Y-43009761D01*
X61438095Y-42914523D01*
X61390476Y-42819285D01*
X61342857Y-42628809D01*
X61342857Y-42485952D01*
X61390476Y-42295476D01*
X61438095Y-42200238D01*
X61533333Y-42105000D01*
X61676190Y-42057380D01*
X61771428Y-42057380D01*
X61914285Y-42105000D01*
X61961904Y-42152619D01*
X62819047Y-43057380D02*
X62819047Y-42533571D01*
X62771428Y-42438333D01*
X62676190Y-42390714D01*
X62485714Y-42390714D01*
X62390476Y-42438333D01*
X62819047Y-43009761D02*
X62723809Y-43057380D01*
X62485714Y-43057380D01*
X62390476Y-43009761D01*
X62342857Y-42914523D01*
X62342857Y-42819285D01*
X62390476Y-42724047D01*
X62485714Y-42676428D01*
X62723809Y-42676428D01*
X62819047Y-42628809D01*
X63295238Y-43057380D02*
X63295238Y-42390714D01*
X63295238Y-42581190D02*
X63342857Y-42485952D01*
X63390476Y-42438333D01*
X63485714Y-42390714D01*
X63580952Y-42390714D01*
X64342857Y-43057380D02*
X64342857Y-42057380D01*
X64342857Y-43009761D02*
X64247619Y-43057380D01*
X64057142Y-43057380D01*
X63961904Y-43009761D01*
X63914285Y-42962142D01*
X63866666Y-42866904D01*
X63866666Y-42581190D01*
X63914285Y-42485952D01*
X63961904Y-42438333D01*
X64057142Y-42390714D01*
X64247619Y-42390714D01*
X64342857Y-42438333D01*
X65200000Y-43009761D02*
X65104761Y-43057380D01*
X64914285Y-43057380D01*
X64819047Y-43009761D01*
X64771428Y-42914523D01*
X64771428Y-42533571D01*
X64819047Y-42438333D01*
X64914285Y-42390714D01*
X65104761Y-42390714D01*
X65200000Y-42438333D01*
X65247619Y-42533571D01*
X65247619Y-42628809D01*
X64771428Y-42724047D01*
X65676190Y-42390714D02*
X65676190Y-43057380D01*
X65676190Y-42485952D02*
X65723809Y-42438333D01*
X65819047Y-42390714D01*
X65961904Y-42390714D01*
X66057142Y-42438333D01*
X66104761Y-42533571D01*
X66104761Y-43057380D01*
D10*
X85207142Y-42739285D02*
X85207142Y-41989285D01*
X85492857Y-41989285D01*
X85564285Y-42025000D01*
X85600000Y-42060714D01*
X85635714Y-42132142D01*
X85635714Y-42239285D01*
X85600000Y-42310714D01*
X85564285Y-42346428D01*
X85492857Y-42382142D01*
X85207142Y-42382142D01*
X85957142Y-42346428D02*
X86207142Y-42346428D01*
X86314285Y-42739285D02*
X85957142Y-42739285D01*
X85957142Y-41989285D01*
X86314285Y-41989285D01*
X86957142Y-41989285D02*
X86814285Y-41989285D01*
X86742857Y-42025000D01*
X86707142Y-42060714D01*
X86635714Y-42167857D01*
X86600000Y-42310714D01*
X86600000Y-42596428D01*
X86635714Y-42667857D01*
X86671428Y-42703571D01*
X86742857Y-42739285D01*
X86885714Y-42739285D01*
X86957142Y-42703571D01*
X86992857Y-42667857D01*
X87028571Y-42596428D01*
X87028571Y-42417857D01*
X86992857Y-42346428D01*
X86957142Y-42310714D01*
X86885714Y-42275000D01*
X86742857Y-42275000D01*
X86671428Y-42310714D01*
X86635714Y-42346428D01*
X86600000Y-42417857D01*
X121771428Y-82939285D02*
X121771428Y-82189285D01*
X122057142Y-82189285D01*
X122128571Y-82225000D01*
X122164285Y-82260714D01*
X122200000Y-82332142D01*
X122200000Y-82439285D01*
X122164285Y-82510714D01*
X122128571Y-82546428D01*
X122057142Y-82582142D01*
X121771428Y-82582142D01*
X122521428Y-82939285D02*
X122521428Y-82189285D01*
X122700000Y-82189285D01*
X122807142Y-82225000D01*
X122878571Y-82296428D01*
X122914285Y-82367857D01*
X122950000Y-82510714D01*
X122950000Y-82617857D01*
X122914285Y-82760714D01*
X122878571Y-82832142D01*
X122807142Y-82903571D01*
X122700000Y-82939285D01*
X122521428Y-82939285D01*
X123200000Y-82189285D02*
X123664285Y-82189285D01*
X123414285Y-82475000D01*
X123521428Y-82475000D01*
X123592857Y-82510714D01*
X123628571Y-82546428D01*
X123664285Y-82617857D01*
X123664285Y-82796428D01*
X123628571Y-82867857D01*
X123592857Y-82903571D01*
X123521428Y-82939285D01*
X123307142Y-82939285D01*
X123235714Y-82903571D01*
X123200000Y-82867857D01*
X114171428Y-82939285D02*
X114171428Y-82189285D01*
X114457142Y-82189285D01*
X114528571Y-82225000D01*
X114564285Y-82260714D01*
X114600000Y-82332142D01*
X114600000Y-82439285D01*
X114564285Y-82510714D01*
X114528571Y-82546428D01*
X114457142Y-82582142D01*
X114171428Y-82582142D01*
X114921428Y-82939285D02*
X114921428Y-82189285D01*
X115100000Y-82189285D01*
X115207142Y-82225000D01*
X115278571Y-82296428D01*
X115314285Y-82367857D01*
X115350000Y-82510714D01*
X115350000Y-82617857D01*
X115314285Y-82760714D01*
X115278571Y-82832142D01*
X115207142Y-82903571D01*
X115100000Y-82939285D01*
X114921428Y-82939285D01*
X115814285Y-82189285D02*
X115885714Y-82189285D01*
X115957142Y-82225000D01*
X115992857Y-82260714D01*
X116028571Y-82332142D01*
X116064285Y-82475000D01*
X116064285Y-82653571D01*
X116028571Y-82796428D01*
X115992857Y-82867857D01*
X115957142Y-82903571D01*
X115885714Y-82939285D01*
X115814285Y-82939285D01*
X115742857Y-82903571D01*
X115707142Y-82867857D01*
X115671428Y-82796428D01*
X115635714Y-82653571D01*
X115635714Y-82475000D01*
X115671428Y-82332142D01*
X115707142Y-82260714D01*
X115742857Y-82225000D01*
X115814285Y-82189285D01*
X110471428Y-42739285D02*
X110471428Y-41989285D01*
X110757142Y-41989285D01*
X110828571Y-42025000D01*
X110864285Y-42060714D01*
X110900000Y-42132142D01*
X110900000Y-42239285D01*
X110864285Y-42310714D01*
X110828571Y-42346428D01*
X110757142Y-42382142D01*
X110471428Y-42382142D01*
X111471428Y-42346428D02*
X111578571Y-42382142D01*
X111614285Y-42417857D01*
X111650000Y-42489285D01*
X111650000Y-42596428D01*
X111614285Y-42667857D01*
X111578571Y-42703571D01*
X111507142Y-42739285D01*
X111221428Y-42739285D01*
X111221428Y-41989285D01*
X111471428Y-41989285D01*
X111542857Y-42025000D01*
X111578571Y-42060714D01*
X111614285Y-42132142D01*
X111614285Y-42203571D01*
X111578571Y-42275000D01*
X111542857Y-42310714D01*
X111471428Y-42346428D01*
X111221428Y-42346428D01*
X112328571Y-41989285D02*
X111971428Y-41989285D01*
X111935714Y-42346428D01*
X111971428Y-42310714D01*
X112042857Y-42275000D01*
X112221428Y-42275000D01*
X112292857Y-42310714D01*
X112328571Y-42346428D01*
X112364285Y-42417857D01*
X112364285Y-42596428D01*
X112328571Y-42667857D01*
X112292857Y-42703571D01*
X112221428Y-42739285D01*
X112042857Y-42739285D01*
X111971428Y-42703571D01*
X111935714Y-42667857D01*
X97925000Y-42739285D02*
X97925000Y-41989285D01*
X98210714Y-41989285D01*
X98282142Y-42025000D01*
X98317857Y-42060714D01*
X98353571Y-42132142D01*
X98353571Y-42239285D01*
X98317857Y-42310714D01*
X98282142Y-42346428D01*
X98210714Y-42382142D01*
X97925000Y-42382142D01*
X98925000Y-42346428D02*
X98675000Y-42346428D01*
X98675000Y-42739285D02*
X98675000Y-41989285D01*
X99032142Y-41989285D01*
X99639285Y-41989285D02*
X99496428Y-41989285D01*
X99425000Y-42025000D01*
X99389285Y-42060714D01*
X99317857Y-42167857D01*
X99282142Y-42310714D01*
X99282142Y-42596428D01*
X99317857Y-42667857D01*
X99353571Y-42703571D01*
X99425000Y-42739285D01*
X99567857Y-42739285D01*
X99639285Y-42703571D01*
X99675000Y-42667857D01*
X99710714Y-42596428D01*
X99710714Y-42417857D01*
X99675000Y-42346428D01*
X99639285Y-42310714D01*
X99567857Y-42275000D01*
X99425000Y-42275000D01*
X99353571Y-42310714D01*
X99317857Y-42346428D01*
X99282142Y-42417857D01*
X90952380Y-82571428D02*
X89952380Y-82571428D01*
X90666666Y-82238095D01*
X89952380Y-81904761D01*
X90952380Y-81904761D01*
X89952380Y-81238095D02*
X89952380Y-81047619D01*
X90000000Y-80952380D01*
X90095238Y-80857142D01*
X90285714Y-80809523D01*
X90619047Y-80809523D01*
X90809523Y-80857142D01*
X90904761Y-80952380D01*
X90952380Y-81047619D01*
X90952380Y-81238095D01*
X90904761Y-81333333D01*
X90809523Y-81428571D01*
X90619047Y-81476190D01*
X90285714Y-81476190D01*
X90095238Y-81428571D01*
X90000000Y-81333333D01*
X89952380Y-81238095D01*
X90904761Y-80428571D02*
X90952380Y-80285714D01*
X90952380Y-80047619D01*
X90904761Y-79952380D01*
X90857142Y-79904761D01*
X90761904Y-79857142D01*
X90666666Y-79857142D01*
X90571428Y-79904761D01*
X90523809Y-79952380D01*
X90476190Y-80047619D01*
X90428571Y-80238095D01*
X90380952Y-80333333D01*
X90333333Y-80380952D01*
X90238095Y-80428571D01*
X90142857Y-80428571D01*
X90047619Y-80380952D01*
X90000000Y-80333333D01*
X89952380Y-80238095D01*
X89952380Y-80000000D01*
X90000000Y-79857142D01*
X90952380Y-79428571D02*
X89952380Y-79428571D01*
X88404761Y-82785714D02*
X88452380Y-82642857D01*
X88452380Y-82404761D01*
X88404761Y-82309523D01*
X88357142Y-82261904D01*
X88261904Y-82214285D01*
X88166666Y-82214285D01*
X88071428Y-82261904D01*
X88023809Y-82309523D01*
X87976190Y-82404761D01*
X87928571Y-82595238D01*
X87880952Y-82690476D01*
X87833333Y-82738095D01*
X87738095Y-82785714D01*
X87642857Y-82785714D01*
X87547619Y-82738095D01*
X87500000Y-82690476D01*
X87452380Y-82595238D01*
X87452380Y-82357142D01*
X87500000Y-82214285D01*
X88357142Y-81214285D02*
X88404761Y-81261904D01*
X88452380Y-81404761D01*
X88452380Y-81500000D01*
X88404761Y-81642857D01*
X88309523Y-81738095D01*
X88214285Y-81785714D01*
X88023809Y-81833333D01*
X87880952Y-81833333D01*
X87690476Y-81785714D01*
X87595238Y-81738095D01*
X87500000Y-81642857D01*
X87452380Y-81500000D01*
X87452380Y-81404761D01*
X87500000Y-81261904D01*
X87547619Y-81214285D01*
X88452380Y-80785714D02*
X87452380Y-80785714D01*
X88452380Y-80214285D02*
X87880952Y-80642857D01*
X87452380Y-80214285D02*
X88023809Y-80785714D01*
X100525000Y-42739285D02*
X100525000Y-41989285D01*
X100810714Y-41989285D01*
X100882142Y-42025000D01*
X100917857Y-42060714D01*
X100953571Y-42132142D01*
X100953571Y-42239285D01*
X100917857Y-42310714D01*
X100882142Y-42346428D01*
X100810714Y-42382142D01*
X100525000Y-42382142D01*
X101525000Y-42346428D02*
X101275000Y-42346428D01*
X101275000Y-42739285D02*
X101275000Y-41989285D01*
X101632142Y-41989285D01*
X101846428Y-41989285D02*
X102346428Y-41989285D01*
X102025000Y-42739285D01*
X93452380Y-82571428D02*
X92452380Y-82571428D01*
X93166666Y-82238095D01*
X92452380Y-81904761D01*
X93452380Y-81904761D01*
X93452380Y-81428571D02*
X92452380Y-81428571D01*
X93404761Y-81000000D02*
X93452380Y-80857142D01*
X93452380Y-80619047D01*
X93404761Y-80523809D01*
X93357142Y-80476190D01*
X93261904Y-80428571D01*
X93166666Y-80428571D01*
X93071428Y-80476190D01*
X93023809Y-80523809D01*
X92976190Y-80619047D01*
X92928571Y-80809523D01*
X92880952Y-80904761D01*
X92833333Y-80952380D01*
X92738095Y-81000000D01*
X92642857Y-81000000D01*
X92547619Y-80952380D01*
X92500000Y-80904761D01*
X92452380Y-80809523D01*
X92452380Y-80571428D01*
X92500000Y-80428571D01*
X92452380Y-79809523D02*
X92452380Y-79619047D01*
X92500000Y-79523809D01*
X92595238Y-79428571D01*
X92785714Y-79380952D01*
X93119047Y-79380952D01*
X93309523Y-79428571D01*
X93404761Y-79523809D01*
X93452380Y-79619047D01*
X93452380Y-79809523D01*
X93404761Y-79904761D01*
X93309523Y-80000000D01*
X93119047Y-80047619D01*
X92785714Y-80047619D01*
X92595238Y-80000000D01*
X92500000Y-79904761D01*
X92452380Y-79809523D01*
X105471428Y-42739285D02*
X105471428Y-41989285D01*
X105757142Y-41989285D01*
X105828571Y-42025000D01*
X105864285Y-42060714D01*
X105900000Y-42132142D01*
X105900000Y-42239285D01*
X105864285Y-42310714D01*
X105828571Y-42346428D01*
X105757142Y-42382142D01*
X105471428Y-42382142D01*
X106650000Y-42667857D02*
X106614285Y-42703571D01*
X106507142Y-42739285D01*
X106435714Y-42739285D01*
X106328571Y-42703571D01*
X106257142Y-42632142D01*
X106221428Y-42560714D01*
X106185714Y-42417857D01*
X106185714Y-42310714D01*
X106221428Y-42167857D01*
X106257142Y-42096428D01*
X106328571Y-42025000D01*
X106435714Y-41989285D01*
X106507142Y-41989285D01*
X106614285Y-42025000D01*
X106650000Y-42060714D01*
X107292857Y-41989285D02*
X107150000Y-41989285D01*
X107078571Y-42025000D01*
X107042857Y-42060714D01*
X106971428Y-42167857D01*
X106935714Y-42310714D01*
X106935714Y-42596428D01*
X106971428Y-42667857D01*
X107007142Y-42703571D01*
X107078571Y-42739285D01*
X107221428Y-42739285D01*
X107292857Y-42703571D01*
X107328571Y-42667857D01*
X107364285Y-42596428D01*
X107364285Y-42417857D01*
X107328571Y-42346428D01*
X107292857Y-42310714D01*
X107221428Y-42275000D01*
X107078571Y-42275000D01*
X107007142Y-42310714D01*
X106971428Y-42346428D01*
X106935714Y-42417857D01*
X116671428Y-82939285D02*
X116671428Y-82189285D01*
X116957142Y-82189285D01*
X117028571Y-82225000D01*
X117064285Y-82260714D01*
X117100000Y-82332142D01*
X117100000Y-82439285D01*
X117064285Y-82510714D01*
X117028571Y-82546428D01*
X116957142Y-82582142D01*
X116671428Y-82582142D01*
X117421428Y-82939285D02*
X117421428Y-82189285D01*
X117600000Y-82189285D01*
X117707142Y-82225000D01*
X117778571Y-82296428D01*
X117814285Y-82367857D01*
X117850000Y-82510714D01*
X117850000Y-82617857D01*
X117814285Y-82760714D01*
X117778571Y-82832142D01*
X117707142Y-82903571D01*
X117600000Y-82939285D01*
X117421428Y-82939285D01*
X118564285Y-82939285D02*
X118135714Y-82939285D01*
X118350000Y-82939285D02*
X118350000Y-82189285D01*
X118278571Y-82296428D01*
X118207142Y-82367857D01*
X118135714Y-82403571D01*
X115571428Y-42739285D02*
X115571428Y-41989285D01*
X115857142Y-41989285D01*
X115928571Y-42025000D01*
X115964285Y-42060714D01*
X116000000Y-42132142D01*
X116000000Y-42239285D01*
X115964285Y-42310714D01*
X115928571Y-42346428D01*
X115857142Y-42382142D01*
X115571428Y-42382142D01*
X116321428Y-42739285D02*
X116321428Y-41989285D01*
X116500000Y-41989285D01*
X116607142Y-42025000D01*
X116678571Y-42096428D01*
X116714285Y-42167857D01*
X116750000Y-42310714D01*
X116750000Y-42417857D01*
X116714285Y-42560714D01*
X116678571Y-42632142D01*
X116607142Y-42703571D01*
X116500000Y-42739285D01*
X116321428Y-42739285D01*
X117000000Y-41989285D02*
X117500000Y-41989285D01*
X117178571Y-42739285D01*
%TO.C,C8*%
X101083333Y-81557142D02*
X101035714Y-81604761D01*
X100892857Y-81652380D01*
X100797619Y-81652380D01*
X100654761Y-81604761D01*
X100559523Y-81509523D01*
X100511904Y-81414285D01*
X100464285Y-81223809D01*
X100464285Y-81080952D01*
X100511904Y-80890476D01*
X100559523Y-80795238D01*
X100654761Y-80700000D01*
X100797619Y-80652380D01*
X100892857Y-80652380D01*
X101035714Y-80700000D01*
X101083333Y-80747619D01*
X101654761Y-81080952D02*
X101559523Y-81033333D01*
X101511904Y-80985714D01*
X101464285Y-80890476D01*
X101464285Y-80842857D01*
X101511904Y-80747619D01*
X101559523Y-80700000D01*
X101654761Y-80652380D01*
X101845238Y-80652380D01*
X101940476Y-80700000D01*
X101988095Y-80747619D01*
X102035714Y-80842857D01*
X102035714Y-80890476D01*
X101988095Y-80985714D01*
X101940476Y-81033333D01*
X101845238Y-81080952D01*
X101654761Y-81080952D01*
X101559523Y-81128571D01*
X101511904Y-81176190D01*
X101464285Y-81271428D01*
X101464285Y-81461904D01*
X101511904Y-81557142D01*
X101559523Y-81604761D01*
X101654761Y-81652380D01*
X101845238Y-81652380D01*
X101940476Y-81604761D01*
X101988095Y-81557142D01*
X102035714Y-81461904D01*
X102035714Y-81271428D01*
X101988095Y-81176190D01*
X101940476Y-81128571D01*
X101845238Y-81080952D01*
%TO.C,C3*%
X91733333Y-61007142D02*
X91685714Y-61054761D01*
X91542857Y-61102380D01*
X91447619Y-61102380D01*
X91304761Y-61054761D01*
X91209523Y-60959523D01*
X91161904Y-60864285D01*
X91114285Y-60673809D01*
X91114285Y-60530952D01*
X91161904Y-60340476D01*
X91209523Y-60245238D01*
X91304761Y-60150000D01*
X91447619Y-60102380D01*
X91542857Y-60102380D01*
X91685714Y-60150000D01*
X91733333Y-60197619D01*
X92066666Y-60102380D02*
X92685714Y-60102380D01*
X92352380Y-60483333D01*
X92495238Y-60483333D01*
X92590476Y-60530952D01*
X92638095Y-60578571D01*
X92685714Y-60673809D01*
X92685714Y-60911904D01*
X92638095Y-61007142D01*
X92590476Y-61054761D01*
X92495238Y-61102380D01*
X92209523Y-61102380D01*
X92114285Y-61054761D01*
X92066666Y-61007142D01*
%TO.C,C4*%
X102107142Y-67966666D02*
X102154761Y-68014285D01*
X102202380Y-68157142D01*
X102202380Y-68252380D01*
X102154761Y-68395238D01*
X102059523Y-68490476D01*
X101964285Y-68538095D01*
X101773809Y-68585714D01*
X101630952Y-68585714D01*
X101440476Y-68538095D01*
X101345238Y-68490476D01*
X101250000Y-68395238D01*
X101202380Y-68252380D01*
X101202380Y-68157142D01*
X101250000Y-68014285D01*
X101297619Y-67966666D01*
X101535714Y-67109523D02*
X102202380Y-67109523D01*
X101154761Y-67347619D02*
X101869047Y-67585714D01*
X101869047Y-66966666D01*
%TO.C,R1*%
X79833333Y-55772380D02*
X79500000Y-55296190D01*
X79261904Y-55772380D02*
X79261904Y-54772380D01*
X79642857Y-54772380D01*
X79738095Y-54820000D01*
X79785714Y-54867619D01*
X79833333Y-54962857D01*
X79833333Y-55105714D01*
X79785714Y-55200952D01*
X79738095Y-55248571D01*
X79642857Y-55296190D01*
X79261904Y-55296190D01*
X80785714Y-55772380D02*
X80214285Y-55772380D01*
X80500000Y-55772380D02*
X80500000Y-54772380D01*
X80404761Y-54915238D01*
X80309523Y-55010476D01*
X80214285Y-55058095D01*
%TO.C,L1*%
X115583333Y-63952380D02*
X115107142Y-63952380D01*
X115107142Y-62952380D01*
X116440476Y-63952380D02*
X115869047Y-63952380D01*
X116154761Y-63952380D02*
X116154761Y-62952380D01*
X116059523Y-63095238D01*
X115964285Y-63190476D01*
X115869047Y-63238095D01*
%TO.C,R7*%
X63872380Y-72966666D02*
X63396190Y-73300000D01*
X63872380Y-73538095D02*
X62872380Y-73538095D01*
X62872380Y-73157142D01*
X62920000Y-73061904D01*
X62967619Y-73014285D01*
X63062857Y-72966666D01*
X63205714Y-72966666D01*
X63300952Y-73014285D01*
X63348571Y-73061904D01*
X63396190Y-73157142D01*
X63396190Y-73538095D01*
X62872380Y-72633333D02*
X62872380Y-71966666D01*
X63872380Y-72395238D01*
%TO.C,C9*%
X87733333Y-56057142D02*
X87685714Y-56104761D01*
X87542857Y-56152380D01*
X87447619Y-56152380D01*
X87304761Y-56104761D01*
X87209523Y-56009523D01*
X87161904Y-55914285D01*
X87114285Y-55723809D01*
X87114285Y-55580952D01*
X87161904Y-55390476D01*
X87209523Y-55295238D01*
X87304761Y-55200000D01*
X87447619Y-55152380D01*
X87542857Y-55152380D01*
X87685714Y-55200000D01*
X87733333Y-55247619D01*
X88209523Y-56152380D02*
X88400000Y-56152380D01*
X88495238Y-56104761D01*
X88542857Y-56057142D01*
X88638095Y-55914285D01*
X88685714Y-55723809D01*
X88685714Y-55342857D01*
X88638095Y-55247619D01*
X88590476Y-55200000D01*
X88495238Y-55152380D01*
X88304761Y-55152380D01*
X88209523Y-55200000D01*
X88161904Y-55247619D01*
X88114285Y-55342857D01*
X88114285Y-55580952D01*
X88161904Y-55676190D01*
X88209523Y-55723809D01*
X88304761Y-55771428D01*
X88495238Y-55771428D01*
X88590476Y-55723809D01*
X88638095Y-55676190D01*
X88685714Y-55580952D01*
%TO.C,R4*%
X88333333Y-74052380D02*
X88000000Y-73576190D01*
X87761904Y-74052380D02*
X87761904Y-73052380D01*
X88142857Y-73052380D01*
X88238095Y-73100000D01*
X88285714Y-73147619D01*
X88333333Y-73242857D01*
X88333333Y-73385714D01*
X88285714Y-73480952D01*
X88238095Y-73528571D01*
X88142857Y-73576190D01*
X87761904Y-73576190D01*
X89190476Y-73385714D02*
X89190476Y-74052380D01*
X88952380Y-73004761D02*
X88714285Y-73719047D01*
X89333333Y-73719047D01*
%TO.C,J1*%
X50452380Y-68733333D02*
X51166666Y-68733333D01*
X51309523Y-68780952D01*
X51404761Y-68876190D01*
X51452380Y-69019047D01*
X51452380Y-69114285D01*
X51452380Y-67733333D02*
X51452380Y-68304761D01*
X51452380Y-68019047D02*
X50452380Y-68019047D01*
X50595238Y-68114285D01*
X50690476Y-68209523D01*
X50738095Y-68304761D01*
%TO.C,C2*%
X68033333Y-53017142D02*
X67985714Y-53064761D01*
X67842857Y-53112380D01*
X67747619Y-53112380D01*
X67604761Y-53064761D01*
X67509523Y-52969523D01*
X67461904Y-52874285D01*
X67414285Y-52683809D01*
X67414285Y-52540952D01*
X67461904Y-52350476D01*
X67509523Y-52255238D01*
X67604761Y-52160000D01*
X67747619Y-52112380D01*
X67842857Y-52112380D01*
X67985714Y-52160000D01*
X68033333Y-52207619D01*
X68414285Y-52207619D02*
X68461904Y-52160000D01*
X68557142Y-52112380D01*
X68795238Y-52112380D01*
X68890476Y-52160000D01*
X68938095Y-52207619D01*
X68985714Y-52302857D01*
X68985714Y-52398095D01*
X68938095Y-52540952D01*
X68366666Y-53112380D01*
X68985714Y-53112380D01*
%TO.C,R2*%
X79833333Y-59772380D02*
X79500000Y-59296190D01*
X79261904Y-59772380D02*
X79261904Y-58772380D01*
X79642857Y-58772380D01*
X79738095Y-58820000D01*
X79785714Y-58867619D01*
X79833333Y-58962857D01*
X79833333Y-59105714D01*
X79785714Y-59200952D01*
X79738095Y-59248571D01*
X79642857Y-59296190D01*
X79261904Y-59296190D01*
X80214285Y-58867619D02*
X80261904Y-58820000D01*
X80357142Y-58772380D01*
X80595238Y-58772380D01*
X80690476Y-58820000D01*
X80738095Y-58867619D01*
X80785714Y-58962857D01*
X80785714Y-59058095D01*
X80738095Y-59200952D01*
X80166666Y-59772380D01*
X80785714Y-59772380D01*
%TO.C,WIRELESS1*%
X69595238Y-79852380D02*
X69833333Y-80852380D01*
X70023809Y-80138095D01*
X70214285Y-80852380D01*
X70452380Y-79852380D01*
X70833333Y-80852380D02*
X70833333Y-79852380D01*
X71880952Y-80852380D02*
X71547619Y-80376190D01*
X71309523Y-80852380D02*
X71309523Y-79852380D01*
X71690476Y-79852380D01*
X71785714Y-79900000D01*
X71833333Y-79947619D01*
X71880952Y-80042857D01*
X71880952Y-80185714D01*
X71833333Y-80280952D01*
X71785714Y-80328571D01*
X71690476Y-80376190D01*
X71309523Y-80376190D01*
X72309523Y-80328571D02*
X72642857Y-80328571D01*
X72785714Y-80852380D02*
X72309523Y-80852380D01*
X72309523Y-79852380D01*
X72785714Y-79852380D01*
X73690476Y-80852380D02*
X73214285Y-80852380D01*
X73214285Y-79852380D01*
X74023809Y-80328571D02*
X74357142Y-80328571D01*
X74500000Y-80852380D02*
X74023809Y-80852380D01*
X74023809Y-79852380D01*
X74500000Y-79852380D01*
X74880952Y-80804761D02*
X75023809Y-80852380D01*
X75261904Y-80852380D01*
X75357142Y-80804761D01*
X75404761Y-80757142D01*
X75452380Y-80661904D01*
X75452380Y-80566666D01*
X75404761Y-80471428D01*
X75357142Y-80423809D01*
X75261904Y-80376190D01*
X75071428Y-80328571D01*
X74976190Y-80280952D01*
X74928571Y-80233333D01*
X74880952Y-80138095D01*
X74880952Y-80042857D01*
X74928571Y-79947619D01*
X74976190Y-79900000D01*
X75071428Y-79852380D01*
X75309523Y-79852380D01*
X75452380Y-79900000D01*
X75833333Y-80804761D02*
X75976190Y-80852380D01*
X76214285Y-80852380D01*
X76309523Y-80804761D01*
X76357142Y-80757142D01*
X76404761Y-80661904D01*
X76404761Y-80566666D01*
X76357142Y-80471428D01*
X76309523Y-80423809D01*
X76214285Y-80376190D01*
X76023809Y-80328571D01*
X75928571Y-80280952D01*
X75880952Y-80233333D01*
X75833333Y-80138095D01*
X75833333Y-80042857D01*
X75880952Y-79947619D01*
X75928571Y-79900000D01*
X76023809Y-79852380D01*
X76261904Y-79852380D01*
X76404761Y-79900000D01*
X77357142Y-80852380D02*
X76785714Y-80852380D01*
X77071428Y-80852380D02*
X77071428Y-79852380D01*
X76976190Y-79995238D01*
X76880952Y-80090476D01*
X76785714Y-80138095D01*
%TO.C,U1*%
X107738095Y-50952380D02*
X107738095Y-51761904D01*
X107785714Y-51857142D01*
X107833333Y-51904761D01*
X107928571Y-51952380D01*
X108119047Y-51952380D01*
X108214285Y-51904761D01*
X108261904Y-51857142D01*
X108309523Y-51761904D01*
X108309523Y-50952380D01*
X109309523Y-51952380D02*
X108738095Y-51952380D01*
X109023809Y-51952380D02*
X109023809Y-50952380D01*
X108928571Y-51095238D01*
X108833333Y-51190476D01*
X108738095Y-51238095D01*
%TO.C,FB1*%
X64766666Y-52628571D02*
X64433333Y-52628571D01*
X64433333Y-53152380D02*
X64433333Y-52152380D01*
X64909523Y-52152380D01*
X65623809Y-52628571D02*
X65766666Y-52676190D01*
X65814285Y-52723809D01*
X65861904Y-52819047D01*
X65861904Y-52961904D01*
X65814285Y-53057142D01*
X65766666Y-53104761D01*
X65671428Y-53152380D01*
X65290476Y-53152380D01*
X65290476Y-52152380D01*
X65623809Y-52152380D01*
X65719047Y-52200000D01*
X65766666Y-52247619D01*
X65814285Y-52342857D01*
X65814285Y-52438095D01*
X65766666Y-52533333D01*
X65719047Y-52580952D01*
X65623809Y-52628571D01*
X65290476Y-52628571D01*
X66814285Y-53152380D02*
X66242857Y-53152380D01*
X66528571Y-53152380D02*
X66528571Y-52152380D01*
X66433333Y-52295238D01*
X66338095Y-52390476D01*
X66242857Y-52438095D01*
%TO.C,Y1*%
X108523809Y-72976190D02*
X108523809Y-73452380D01*
X108190476Y-72452380D02*
X108523809Y-72976190D01*
X108857142Y-72452380D01*
X109714285Y-73452380D02*
X109142857Y-73452380D01*
X109428571Y-73452380D02*
X109428571Y-72452380D01*
X109333333Y-72595238D01*
X109238095Y-72690476D01*
X109142857Y-72738095D01*
%TO.C,C5*%
X92583333Y-55707142D02*
X92535714Y-55754761D01*
X92392857Y-55802380D01*
X92297619Y-55802380D01*
X92154761Y-55754761D01*
X92059523Y-55659523D01*
X92011904Y-55564285D01*
X91964285Y-55373809D01*
X91964285Y-55230952D01*
X92011904Y-55040476D01*
X92059523Y-54945238D01*
X92154761Y-54850000D01*
X92297619Y-54802380D01*
X92392857Y-54802380D01*
X92535714Y-54850000D01*
X92583333Y-54897619D01*
X93488095Y-54802380D02*
X93011904Y-54802380D01*
X92964285Y-55278571D01*
X93011904Y-55230952D01*
X93107142Y-55183333D01*
X93345238Y-55183333D01*
X93440476Y-55230952D01*
X93488095Y-55278571D01*
X93535714Y-55373809D01*
X93535714Y-55611904D01*
X93488095Y-55707142D01*
X93440476Y-55754761D01*
X93345238Y-55802380D01*
X93107142Y-55802380D01*
X93011904Y-55754761D01*
X92964285Y-55707142D01*
%TO.C,GPIO2*%
X80523809Y-39500000D02*
X80428571Y-39452380D01*
X80285714Y-39452380D01*
X80142857Y-39500000D01*
X80047619Y-39595238D01*
X80000000Y-39690476D01*
X79952380Y-39880952D01*
X79952380Y-40023809D01*
X80000000Y-40214285D01*
X80047619Y-40309523D01*
X80142857Y-40404761D01*
X80285714Y-40452380D01*
X80380952Y-40452380D01*
X80523809Y-40404761D01*
X80571428Y-40357142D01*
X80571428Y-40023809D01*
X80380952Y-40023809D01*
X81000000Y-40452380D02*
X81000000Y-39452380D01*
X81380952Y-39452380D01*
X81476190Y-39500000D01*
X81523809Y-39547619D01*
X81571428Y-39642857D01*
X81571428Y-39785714D01*
X81523809Y-39880952D01*
X81476190Y-39928571D01*
X81380952Y-39976190D01*
X81000000Y-39976190D01*
X82000000Y-40452380D02*
X82000000Y-39452380D01*
X82666666Y-39452380D02*
X82857142Y-39452380D01*
X82952380Y-39500000D01*
X83047619Y-39595238D01*
X83095238Y-39785714D01*
X83095238Y-40119047D01*
X83047619Y-40309523D01*
X82952380Y-40404761D01*
X82857142Y-40452380D01*
X82666666Y-40452380D01*
X82571428Y-40404761D01*
X82476190Y-40309523D01*
X82428571Y-40119047D01*
X82428571Y-39785714D01*
X82476190Y-39595238D01*
X82571428Y-39500000D01*
X82666666Y-39452380D01*
X83476190Y-39547619D02*
X83523809Y-39500000D01*
X83619047Y-39452380D01*
X83857142Y-39452380D01*
X83952380Y-39500000D01*
X84000000Y-39547619D01*
X84047619Y-39642857D01*
X84047619Y-39738095D01*
X84000000Y-39880952D01*
X83428571Y-40452380D01*
X84047619Y-40452380D01*
%TO.C,R3*%
X60633333Y-51752380D02*
X60300000Y-51276190D01*
X60061904Y-51752380D02*
X60061904Y-50752380D01*
X60442857Y-50752380D01*
X60538095Y-50800000D01*
X60585714Y-50847619D01*
X60633333Y-50942857D01*
X60633333Y-51085714D01*
X60585714Y-51180952D01*
X60538095Y-51228571D01*
X60442857Y-51276190D01*
X60061904Y-51276190D01*
X60966666Y-50752380D02*
X61585714Y-50752380D01*
X61252380Y-51133333D01*
X61395238Y-51133333D01*
X61490476Y-51180952D01*
X61538095Y-51228571D01*
X61585714Y-51323809D01*
X61585714Y-51561904D01*
X61538095Y-51657142D01*
X61490476Y-51704761D01*
X61395238Y-51752380D01*
X61109523Y-51752380D01*
X61014285Y-51704761D01*
X60966666Y-51657142D01*
%TO.C,C12*%
X111107142Y-66607142D02*
X111059523Y-66654761D01*
X110916666Y-66702380D01*
X110821428Y-66702380D01*
X110678571Y-66654761D01*
X110583333Y-66559523D01*
X110535714Y-66464285D01*
X110488095Y-66273809D01*
X110488095Y-66130952D01*
X110535714Y-65940476D01*
X110583333Y-65845238D01*
X110678571Y-65750000D01*
X110821428Y-65702380D01*
X110916666Y-65702380D01*
X111059523Y-65750000D01*
X111107142Y-65797619D01*
X112059523Y-66702380D02*
X111488095Y-66702380D01*
X111773809Y-66702380D02*
X111773809Y-65702380D01*
X111678571Y-65845238D01*
X111583333Y-65940476D01*
X111488095Y-65988095D01*
X112440476Y-65797619D02*
X112488095Y-65750000D01*
X112583333Y-65702380D01*
X112821428Y-65702380D01*
X112916666Y-65750000D01*
X112964285Y-65797619D01*
X113011904Y-65892857D01*
X113011904Y-65988095D01*
X112964285Y-66130952D01*
X112392857Y-66702380D01*
X113011904Y-66702380D01*
%TO.C,C7*%
X106833333Y-81607142D02*
X106785714Y-81654761D01*
X106642857Y-81702380D01*
X106547619Y-81702380D01*
X106404761Y-81654761D01*
X106309523Y-81559523D01*
X106261904Y-81464285D01*
X106214285Y-81273809D01*
X106214285Y-81130952D01*
X106261904Y-80940476D01*
X106309523Y-80845238D01*
X106404761Y-80750000D01*
X106547619Y-80702380D01*
X106642857Y-80702380D01*
X106785714Y-80750000D01*
X106833333Y-80797619D01*
X107166666Y-80702380D02*
X107833333Y-80702380D01*
X107404761Y-81702380D01*
%TO.C,C10*%
X99607142Y-44107142D02*
X99559523Y-44154761D01*
X99416666Y-44202380D01*
X99321428Y-44202380D01*
X99178571Y-44154761D01*
X99083333Y-44059523D01*
X99035714Y-43964285D01*
X98988095Y-43773809D01*
X98988095Y-43630952D01*
X99035714Y-43440476D01*
X99083333Y-43345238D01*
X99178571Y-43250000D01*
X99321428Y-43202380D01*
X99416666Y-43202380D01*
X99559523Y-43250000D01*
X99607142Y-43297619D01*
X100559523Y-44202380D02*
X99988095Y-44202380D01*
X100273809Y-44202380D02*
X100273809Y-43202380D01*
X100178571Y-43345238D01*
X100083333Y-43440476D01*
X99988095Y-43488095D01*
X101178571Y-43202380D02*
X101273809Y-43202380D01*
X101369047Y-43250000D01*
X101416666Y-43297619D01*
X101464285Y-43392857D01*
X101511904Y-43583333D01*
X101511904Y-43821428D01*
X101464285Y-44011904D01*
X101416666Y-44107142D01*
X101369047Y-44154761D01*
X101273809Y-44202380D01*
X101178571Y-44202380D01*
X101083333Y-44154761D01*
X101035714Y-44107142D01*
X100988095Y-44011904D01*
X100940476Y-43821428D01*
X100940476Y-43583333D01*
X100988095Y-43392857D01*
X101035714Y-43297619D01*
X101083333Y-43250000D01*
X101178571Y-43202380D01*
%TO.C,C6*%
X57933333Y-84357142D02*
X57885714Y-84404761D01*
X57742857Y-84452380D01*
X57647619Y-84452380D01*
X57504761Y-84404761D01*
X57409523Y-84309523D01*
X57361904Y-84214285D01*
X57314285Y-84023809D01*
X57314285Y-83880952D01*
X57361904Y-83690476D01*
X57409523Y-83595238D01*
X57504761Y-83500000D01*
X57647619Y-83452380D01*
X57742857Y-83452380D01*
X57885714Y-83500000D01*
X57933333Y-83547619D01*
X58790476Y-83452380D02*
X58600000Y-83452380D01*
X58504761Y-83500000D01*
X58457142Y-83547619D01*
X58361904Y-83690476D01*
X58314285Y-83880952D01*
X58314285Y-84261904D01*
X58361904Y-84357142D01*
X58409523Y-84404761D01*
X58504761Y-84452380D01*
X58695238Y-84452380D01*
X58790476Y-84404761D01*
X58838095Y-84357142D01*
X58885714Y-84261904D01*
X58885714Y-84023809D01*
X58838095Y-83928571D01*
X58790476Y-83880952D01*
X58695238Y-83833333D01*
X58504761Y-83833333D01*
X58409523Y-83880952D01*
X58361904Y-83928571D01*
X58314285Y-84023809D01*
%TO.C,J2*%
X84682380Y-85333333D02*
X85396666Y-85333333D01*
X85539523Y-85380952D01*
X85634761Y-85476190D01*
X85682380Y-85619047D01*
X85682380Y-85714285D01*
X84777619Y-84904761D02*
X84730000Y-84857142D01*
X84682380Y-84761904D01*
X84682380Y-84523809D01*
X84730000Y-84428571D01*
X84777619Y-84380952D01*
X84872857Y-84333333D01*
X84968095Y-84333333D01*
X85110952Y-84380952D01*
X85682380Y-84952380D01*
X85682380Y-84333333D01*
%TO.C,GPIO1*%
X104523809Y-84475000D02*
X104428571Y-84427380D01*
X104285714Y-84427380D01*
X104142857Y-84475000D01*
X104047619Y-84570238D01*
X104000000Y-84665476D01*
X103952380Y-84855952D01*
X103952380Y-84998809D01*
X104000000Y-85189285D01*
X104047619Y-85284523D01*
X104142857Y-85379761D01*
X104285714Y-85427380D01*
X104380952Y-85427380D01*
X104523809Y-85379761D01*
X104571428Y-85332142D01*
X104571428Y-84998809D01*
X104380952Y-84998809D01*
X105000000Y-85427380D02*
X105000000Y-84427380D01*
X105380952Y-84427380D01*
X105476190Y-84475000D01*
X105523809Y-84522619D01*
X105571428Y-84617857D01*
X105571428Y-84760714D01*
X105523809Y-84855952D01*
X105476190Y-84903571D01*
X105380952Y-84951190D01*
X105000000Y-84951190D01*
X106000000Y-85427380D02*
X106000000Y-84427380D01*
X106666666Y-84427380D02*
X106857142Y-84427380D01*
X106952380Y-84475000D01*
X107047619Y-84570238D01*
X107095238Y-84760714D01*
X107095238Y-85094047D01*
X107047619Y-85284523D01*
X106952380Y-85379761D01*
X106857142Y-85427380D01*
X106666666Y-85427380D01*
X106571428Y-85379761D01*
X106476190Y-85284523D01*
X106428571Y-85094047D01*
X106428571Y-84760714D01*
X106476190Y-84570238D01*
X106571428Y-84475000D01*
X106666666Y-84427380D01*
X108047619Y-85427380D02*
X107476190Y-85427380D01*
X107761904Y-85427380D02*
X107761904Y-84427380D01*
X107666666Y-84570238D01*
X107571428Y-84665476D01*
X107476190Y-84713095D01*
%TO.C,R6*%
X63333333Y-67272380D02*
X63000000Y-66796190D01*
X62761904Y-67272380D02*
X62761904Y-66272380D01*
X63142857Y-66272380D01*
X63238095Y-66320000D01*
X63285714Y-66367619D01*
X63333333Y-66462857D01*
X63333333Y-66605714D01*
X63285714Y-66700952D01*
X63238095Y-66748571D01*
X63142857Y-66796190D01*
X62761904Y-66796190D01*
X64190476Y-66272380D02*
X64000000Y-66272380D01*
X63904761Y-66320000D01*
X63857142Y-66367619D01*
X63761904Y-66510476D01*
X63714285Y-66700952D01*
X63714285Y-67081904D01*
X63761904Y-67177142D01*
X63809523Y-67224761D01*
X63904761Y-67272380D01*
X64095238Y-67272380D01*
X64190476Y-67224761D01*
X64238095Y-67177142D01*
X64285714Y-67081904D01*
X64285714Y-66843809D01*
X64238095Y-66748571D01*
X64190476Y-66700952D01*
X64095238Y-66653333D01*
X63904761Y-66653333D01*
X63809523Y-66700952D01*
X63761904Y-66748571D01*
X63714285Y-66843809D01*
%TO.C,R5*%
X63333333Y-62522380D02*
X63000000Y-62046190D01*
X62761904Y-62522380D02*
X62761904Y-61522380D01*
X63142857Y-61522380D01*
X63238095Y-61570000D01*
X63285714Y-61617619D01*
X63333333Y-61712857D01*
X63333333Y-61855714D01*
X63285714Y-61950952D01*
X63238095Y-61998571D01*
X63142857Y-62046190D01*
X62761904Y-62046190D01*
X64238095Y-61522380D02*
X63761904Y-61522380D01*
X63714285Y-61998571D01*
X63761904Y-61950952D01*
X63857142Y-61903333D01*
X64095238Y-61903333D01*
X64190476Y-61950952D01*
X64238095Y-61998571D01*
X64285714Y-62093809D01*
X64285714Y-62331904D01*
X64238095Y-62427142D01*
X64190476Y-62474761D01*
X64095238Y-62522380D01*
X63857142Y-62522380D01*
X63761904Y-62474761D01*
X63714285Y-62427142D01*
%TO.C,C13*%
X105857142Y-44594642D02*
X105809523Y-44642261D01*
X105666666Y-44689880D01*
X105571428Y-44689880D01*
X105428571Y-44642261D01*
X105333333Y-44547023D01*
X105285714Y-44451785D01*
X105238095Y-44261309D01*
X105238095Y-44118452D01*
X105285714Y-43927976D01*
X105333333Y-43832738D01*
X105428571Y-43737500D01*
X105571428Y-43689880D01*
X105666666Y-43689880D01*
X105809523Y-43737500D01*
X105857142Y-43785119D01*
X106809523Y-44689880D02*
X106238095Y-44689880D01*
X106523809Y-44689880D02*
X106523809Y-43689880D01*
X106428571Y-43832738D01*
X106333333Y-43927976D01*
X106238095Y-43975595D01*
X107142857Y-43689880D02*
X107761904Y-43689880D01*
X107428571Y-44070833D01*
X107571428Y-44070833D01*
X107666666Y-44118452D01*
X107714285Y-44166071D01*
X107761904Y-44261309D01*
X107761904Y-44499404D01*
X107714285Y-44594642D01*
X107666666Y-44642261D01*
X107571428Y-44689880D01*
X107285714Y-44689880D01*
X107190476Y-44642261D01*
X107142857Y-44594642D01*
%TO.C,C1*%
X65833333Y-48557142D02*
X65785714Y-48604761D01*
X65642857Y-48652380D01*
X65547619Y-48652380D01*
X65404761Y-48604761D01*
X65309523Y-48509523D01*
X65261904Y-48414285D01*
X65214285Y-48223809D01*
X65214285Y-48080952D01*
X65261904Y-47890476D01*
X65309523Y-47795238D01*
X65404761Y-47700000D01*
X65547619Y-47652380D01*
X65642857Y-47652380D01*
X65785714Y-47700000D01*
X65833333Y-47747619D01*
X66785714Y-48652380D02*
X66214285Y-48652380D01*
X66500000Y-48652380D02*
X66500000Y-47652380D01*
X66404761Y-47795238D01*
X66309523Y-47890476D01*
X66214285Y-47938095D01*
%TO.C,C11*%
X96357142Y-44107142D02*
X96309523Y-44154761D01*
X96166666Y-44202380D01*
X96071428Y-44202380D01*
X95928571Y-44154761D01*
X95833333Y-44059523D01*
X95785714Y-43964285D01*
X95738095Y-43773809D01*
X95738095Y-43630952D01*
X95785714Y-43440476D01*
X95833333Y-43345238D01*
X95928571Y-43250000D01*
X96071428Y-43202380D01*
X96166666Y-43202380D01*
X96309523Y-43250000D01*
X96357142Y-43297619D01*
X97309523Y-44202380D02*
X96738095Y-44202380D01*
X97023809Y-44202380D02*
X97023809Y-43202380D01*
X96928571Y-43345238D01*
X96833333Y-43440476D01*
X96738095Y-43488095D01*
X98261904Y-44202380D02*
X97690476Y-44202380D01*
X97976190Y-44202380D02*
X97976190Y-43202380D01*
X97880952Y-43345238D01*
X97785714Y-43440476D01*
X97690476Y-43488095D01*
D13*
%TO.C,C8*%
X100538748Y-78340000D02*
X101961252Y-78340000D01*
X100538748Y-80160000D02*
X101961252Y-80160000D01*
%TO.C,C3*%
X92611252Y-57890000D02*
X91188748Y-57890000D01*
X92611252Y-59710000D02*
X91188748Y-59710000D01*
%TO.C,C4*%
X98990000Y-67088748D02*
X98990000Y-68511252D01*
X100810000Y-67088748D02*
X100810000Y-68511252D01*
%TO.C,R1*%
X80727064Y-52590000D02*
X79272936Y-52590000D01*
X80727064Y-54410000D02*
X79272936Y-54410000D01*
%TO.C,L1*%
X114914758Y-62410000D02*
X116585242Y-62410000D01*
X114914758Y-60590000D02*
X116585242Y-60590000D01*
%TO.C,R7*%
X62510000Y-72072936D02*
X62510000Y-73527064D01*
X60690000Y-72072936D02*
X60690000Y-73527064D01*
%TO.C,C9*%
X88710000Y-58288748D02*
X88710000Y-59711252D01*
X86890000Y-58288748D02*
X86890000Y-59711252D01*
%TO.C,R4*%
X91770000Y-72470000D02*
X91770000Y-69730000D01*
X85230000Y-72470000D02*
X91770000Y-72470000D01*
X91770000Y-69730000D02*
X85230000Y-69730000D01*
X95080000Y-71100000D02*
X91770000Y-71100000D01*
X85230000Y-69730000D02*
X85230000Y-72470000D01*
X81920000Y-71100000D02*
X85230000Y-71100000D01*
D12*
%TO.C,J1*%
X51680000Y-57710000D02*
X50400000Y-57710000D01*
X55650000Y-57710000D02*
X54400000Y-57710000D01*
X50400000Y-57710000D02*
X50400000Y-67290000D01*
X55650000Y-67290000D02*
X54400000Y-67290000D01*
X50400000Y-67290000D02*
X51680000Y-67290000D01*
D13*
%TO.C,C2*%
X67290000Y-55248748D02*
X67290000Y-56671252D01*
X69110000Y-55248748D02*
X69110000Y-56671252D01*
%TO.C,RESET1*%
X56662500Y-80865000D02*
X57172500Y-80865000D01*
X56662500Y-73665000D02*
X57172500Y-73665000D01*
X50162500Y-73665000D02*
X54062500Y-73665000D01*
X56662500Y-81385000D02*
X57172500Y-81385000D01*
X57172500Y-81385000D02*
X57172500Y-80865000D01*
X50162500Y-81385000D02*
X50162500Y-73665000D01*
X53832500Y-80865000D02*
X53832500Y-80325000D01*
X57172500Y-74185000D02*
X57172500Y-73665000D01*
X56662500Y-74185000D02*
X57172500Y-74185000D01*
X53832500Y-74185000D02*
X54062500Y-74185000D01*
X53832500Y-74725000D02*
X53832500Y-74185000D01*
X53832500Y-80865000D02*
X54062500Y-80865000D01*
X53832500Y-79225000D02*
X53832500Y-75825000D01*
X50162500Y-81385000D02*
X54062500Y-81385000D01*
%TO.C,R2*%
X80727064Y-56590000D02*
X79272936Y-56590000D01*
X80727064Y-58410000D02*
X79272936Y-58410000D01*
%TO.C,WIRELESS1*%
X67670000Y-84270000D02*
X70270000Y-84270000D01*
X77950000Y-86870000D02*
X77950000Y-81670000D01*
X67670000Y-86870000D02*
X67670000Y-84270000D01*
X67670000Y-83000000D02*
X67670000Y-81670000D01*
X70270000Y-81670000D02*
X77950000Y-81670000D01*
X67670000Y-86870000D02*
X77950000Y-86870000D01*
X67670000Y-81670000D02*
X69000000Y-81670000D01*
X70270000Y-84270000D02*
X70270000Y-81670000D01*
D10*
%TO.C,U1*%
X97325000Y-62675000D02*
X97325000Y-62000000D01*
X97325000Y-52325000D02*
X98000000Y-52325000D01*
X107675000Y-62675000D02*
X107675000Y-62000000D01*
X97325000Y-52900000D02*
X96050000Y-52900000D01*
X107675000Y-52325000D02*
X107000000Y-52325000D01*
X97325000Y-52325000D02*
X97325000Y-52900000D01*
X107675000Y-52325000D02*
X107675000Y-53000000D01*
X97325000Y-62675000D02*
X98000000Y-62675000D01*
X107675000Y-62675000D02*
X107000000Y-62675000D01*
D13*
%TO.C,FB1*%
X64590000Y-55164758D02*
X64590000Y-56835242D01*
X66410000Y-55164758D02*
X66410000Y-56835242D01*
%TO.C,PWR1*%
X51264000Y-53790000D02*
X51420000Y-53790000D01*
X53580000Y-53790000D02*
X53736000Y-53790000D01*
X51421392Y-50557665D02*
G75*
G03*
X51264484Y-53790000I1078608J-1672335D01*
G01*
X53580000Y-53270961D02*
G75*
G03*
X53579837Y-51188870I-1080000J1040961D01*
G01*
X53735516Y-53790000D02*
G75*
G03*
X53578608Y-50557665I-1235516J1560000D01*
G01*
X51420163Y-51188870D02*
G75*
G03*
X51420000Y-53270961I1079837J-1041130D01*
G01*
%TO.C,Y1*%
X105225000Y-72475000D02*
X98975000Y-72475000D01*
X105225000Y-77525000D02*
X98975000Y-77525000D01*
X98975000Y-72475000D02*
G75*
G03*
X98975000Y-77525000I0J-2525000D01*
G01*
X105225000Y-77525000D02*
G75*
G03*
X105225000Y-72475000I0J2525000D01*
G01*
%TO.C,C5*%
X93461252Y-52590000D02*
X92038748Y-52590000D01*
X93461252Y-54410000D02*
X92038748Y-54410000D01*
%TO.C,GPIO2*%
X87270000Y-41330000D02*
X87270000Y-38670000D01*
X84670000Y-40000000D02*
X84670000Y-38670000D01*
X122890000Y-41330000D02*
X122890000Y-38670000D01*
X87270000Y-41330000D02*
X122890000Y-41330000D01*
X84670000Y-38670000D02*
X86000000Y-38670000D01*
X87270000Y-38670000D02*
X122890000Y-38670000D01*
%TO.C,R3*%
X61660000Y-53772936D02*
X61660000Y-55227064D01*
X59840000Y-53772936D02*
X59840000Y-55227064D01*
%TO.C,C12*%
X110840000Y-62288748D02*
X110840000Y-63711252D01*
X112660000Y-62288748D02*
X112660000Y-63711252D01*
%TO.C,C7*%
X106288748Y-80160000D02*
X107711252Y-80160000D01*
X106288748Y-78340000D02*
X107711252Y-78340000D01*
%TO.C,C10*%
X99190000Y-47711252D02*
X99190000Y-46288748D01*
X101010000Y-47711252D02*
X101010000Y-46288748D01*
%TO.C,C6*%
X53788748Y-84910000D02*
X55211252Y-84910000D01*
X53788748Y-83090000D02*
X55211252Y-83090000D01*
%TO.C,J2*%
X86670000Y-83670000D02*
X88000000Y-83670000D01*
X89270000Y-86330000D02*
X96950000Y-86330000D01*
X89270000Y-83670000D02*
X96950000Y-83670000D01*
X89270000Y-86330000D02*
X89270000Y-83670000D01*
X96950000Y-86330000D02*
X96950000Y-83670000D01*
X86670000Y-85000000D02*
X86670000Y-83670000D01*
%TO.C,G\u002A\u002A\u002A*%
G36*
X120120879Y-58228761D02*
G01*
X120060173Y-58129803D01*
X120009942Y-58023431D01*
X119970672Y-57910368D01*
X119942851Y-57791334D01*
X119926966Y-57667052D01*
X119923502Y-57538243D01*
X119924254Y-57515501D01*
X120240186Y-57515501D01*
X120241405Y-57627250D01*
X120254078Y-57735810D01*
X120278425Y-57839870D01*
X120314668Y-57938120D01*
X120328664Y-57967816D01*
X120370011Y-58040029D01*
X120419144Y-58107578D01*
X120473928Y-58168141D01*
X120532229Y-58219396D01*
X120591913Y-58259021D01*
X120600627Y-58263700D01*
X120661894Y-58290941D01*
X120730960Y-58313882D01*
X120801493Y-58330588D01*
X120839049Y-58336473D01*
X120885958Y-58340092D01*
X120939145Y-58340663D01*
X120993875Y-58338420D01*
X121045414Y-58333594D01*
X121089025Y-58326416D01*
X121100573Y-58323651D01*
X121194409Y-58291488D01*
X121285213Y-58245468D01*
X121310149Y-58230077D01*
X121335269Y-58213566D01*
X121355085Y-58199805D01*
X121366992Y-58190644D01*
X121369261Y-58188076D01*
X121364997Y-58181122D01*
X121353567Y-58165870D01*
X121337019Y-58145001D01*
X121327414Y-58133238D01*
X121223410Y-57999366D01*
X121122228Y-57854173D01*
X121025605Y-57700625D01*
X120935278Y-57541688D01*
X120852982Y-57380330D01*
X120780454Y-57219516D01*
X120752596Y-57151004D01*
X120734316Y-57105468D01*
X120719508Y-57071274D01*
X120707038Y-57046194D01*
X120695770Y-57028001D01*
X120684568Y-57014468D01*
X120681368Y-57011286D01*
X120642182Y-56965065D01*
X120612938Y-56910470D01*
X120593233Y-56846513D01*
X120582663Y-56772208D01*
X120582427Y-56769035D01*
X120577526Y-56701099D01*
X120533733Y-56754091D01*
X120460982Y-56851455D01*
X120398134Y-56954807D01*
X120345410Y-57062835D01*
X120303032Y-57174230D01*
X120271221Y-57287680D01*
X120250198Y-57401874D01*
X120240186Y-57515501D01*
X119924254Y-57515501D01*
X119924460Y-57509255D01*
X119937499Y-57361996D01*
X119963294Y-57216605D01*
X120001291Y-57074382D01*
X120050937Y-56936631D01*
X120111682Y-56804654D01*
X120182973Y-56679756D01*
X120264257Y-56563237D01*
X120354982Y-56456402D01*
X120383106Y-56427289D01*
X120412622Y-56398074D01*
X120441899Y-56369871D01*
X120467873Y-56345582D01*
X120487483Y-56328109D01*
X120490199Y-56325830D01*
X120524677Y-56297339D01*
X120513553Y-56201125D01*
X120494506Y-55976300D01*
X120489646Y-55778249D01*
X120846876Y-55778249D01*
X120854099Y-55989193D01*
X120856764Y-56029469D01*
X120859231Y-56064404D01*
X120861321Y-56091643D01*
X120862855Y-56108836D01*
X120863566Y-56113781D01*
X120870730Y-56112936D01*
X120888972Y-56109350D01*
X120915434Y-56103615D01*
X120943453Y-56097213D01*
X120987587Y-56088125D01*
X121032143Y-56081735D01*
X121081968Y-56077477D01*
X121132815Y-56075085D01*
X121205371Y-56074371D01*
X121266386Y-56078121D01*
X121318122Y-56086942D01*
X121362839Y-56101438D01*
X121402795Y-56122215D01*
X121440253Y-56149877D01*
X121452504Y-56160668D01*
X121497498Y-56211073D01*
X121530273Y-56268569D01*
X121550735Y-56332612D01*
X121558790Y-56402656D01*
X121554344Y-56478156D01*
X121537305Y-56558566D01*
X121526756Y-56592532D01*
X121487630Y-56686443D01*
X121436539Y-56772764D01*
X121374058Y-56850844D01*
X121300761Y-56920034D01*
X121217220Y-56979683D01*
X121154310Y-57014736D01*
X121129403Y-57027332D01*
X121109877Y-57037456D01*
X121098917Y-57043447D01*
X121097706Y-57044250D01*
X121099048Y-57051945D01*
X121105997Y-57070696D01*
X121117760Y-57098735D01*
X121133544Y-57134295D01*
X121152557Y-57175611D01*
X121174005Y-57220916D01*
X121197096Y-57268442D01*
X121209918Y-57294304D01*
X121282797Y-57431084D01*
X121365105Y-57569314D01*
X121453777Y-57704163D01*
X121545747Y-57830797D01*
X121570099Y-57862132D01*
X121591788Y-57889437D01*
X121610103Y-57912140D01*
X121623333Y-57928149D01*
X121629770Y-57935368D01*
X121630086Y-57935573D01*
X121635042Y-57930298D01*
X121647287Y-57915790D01*
X121665183Y-57894029D01*
X121687093Y-57866994D01*
X121696758Y-57854967D01*
X121774320Y-57754844D01*
X121852246Y-57647379D01*
X121931043Y-57531748D01*
X122011218Y-57407127D01*
X122093279Y-57272691D01*
X122177732Y-57127616D01*
X122265085Y-56971078D01*
X122355844Y-56802251D01*
X122420747Y-56678112D01*
X122501760Y-56521615D01*
X122576680Y-56377075D01*
X122645938Y-56243690D01*
X122709962Y-56120658D01*
X122769183Y-56007175D01*
X122824030Y-55902440D01*
X122874932Y-55805649D01*
X122922319Y-55716001D01*
X122966619Y-55632692D01*
X123008264Y-55554919D01*
X123047681Y-55481882D01*
X123085301Y-55412776D01*
X123121553Y-55346799D01*
X123156866Y-55283149D01*
X123191671Y-55221023D01*
X123226395Y-55159619D01*
X123261470Y-55098134D01*
X123297323Y-55035765D01*
X123327499Y-54983585D01*
X123412650Y-54837981D01*
X123492604Y-54704080D01*
X123568232Y-54580603D01*
X123640405Y-54466271D01*
X123709992Y-54359806D01*
X123777864Y-54259927D01*
X123844891Y-54165355D01*
X123911945Y-54074813D01*
X123979895Y-53987020D01*
X124049612Y-53900697D01*
X124121966Y-53814565D01*
X124127012Y-53808674D01*
X124150212Y-53781427D01*
X124169498Y-53758415D01*
X124183224Y-53741628D01*
X124189745Y-53733059D01*
X124190043Y-53732380D01*
X124182337Y-53732577D01*
X124162503Y-53734717D01*
X124132571Y-53738505D01*
X124094568Y-53743650D01*
X124050521Y-53749858D01*
X124002459Y-53756836D01*
X123952410Y-53764291D01*
X123902401Y-53771931D01*
X123854460Y-53779461D01*
X123810614Y-53786589D01*
X123785324Y-53790860D01*
X123607371Y-53823731D01*
X123442454Y-53858967D01*
X123289422Y-53896902D01*
X123147125Y-53937869D01*
X123014414Y-53982203D01*
X122890138Y-54030236D01*
X122773148Y-54082302D01*
X122760961Y-54088151D01*
X122661454Y-54138380D01*
X122573925Y-54187342D01*
X122496281Y-54236472D01*
X122426427Y-54287203D01*
X122362268Y-54340966D01*
X122301709Y-54399196D01*
X122292846Y-54408363D01*
X122232999Y-54475770D01*
X122181926Y-54544805D01*
X122136451Y-54620092D01*
X122104246Y-54683160D01*
X122067704Y-54765368D01*
X122040430Y-54841379D01*
X122021510Y-54915077D01*
X122010026Y-54990349D01*
X122005064Y-55071077D01*
X122004699Y-55105390D01*
X122010810Y-55212656D01*
X122028974Y-55312463D01*
X122059457Y-55405504D01*
X122102525Y-55492472D01*
X122158446Y-55574060D01*
X122206552Y-55629581D01*
X122245708Y-55669472D01*
X122280595Y-55701086D01*
X122315466Y-55727672D01*
X122354572Y-55752477D01*
X122401091Y-55778182D01*
X122466671Y-55812822D01*
X122383704Y-55898876D01*
X122300738Y-55984930D01*
X122266692Y-55981538D01*
X122159623Y-55964673D01*
X122050082Y-55935702D01*
X121941130Y-55895739D01*
X121835829Y-55845896D01*
X121743095Y-55791151D01*
X121633245Y-55710992D01*
X121534498Y-55621947D01*
X121447131Y-55524427D01*
X121371424Y-55418841D01*
X121307655Y-55305600D01*
X121256102Y-55185114D01*
X121217044Y-55057794D01*
X121203002Y-54995308D01*
X121193698Y-54933750D01*
X121188201Y-54864489D01*
X121186554Y-54792273D01*
X121188799Y-54721851D01*
X121194977Y-54657971D01*
X121199758Y-54628916D01*
X121230478Y-54504296D01*
X121272479Y-54387026D01*
X121325374Y-54277829D01*
X121388775Y-54177432D01*
X121462294Y-54086557D01*
X121521624Y-54027111D01*
X121588533Y-53971679D01*
X121667397Y-53916477D01*
X121755881Y-53862764D01*
X121851646Y-53811800D01*
X121952358Y-53764846D01*
X122055678Y-53723160D01*
X122138777Y-53694409D01*
X122206703Y-53673641D01*
X122275846Y-53654454D01*
X122347045Y-53636758D01*
X122421140Y-53620460D01*
X122498971Y-53605469D01*
X122581378Y-53591694D01*
X122669200Y-53579043D01*
X122763277Y-53567425D01*
X122864450Y-53556749D01*
X122973557Y-53546924D01*
X123091438Y-53537857D01*
X123218934Y-53529458D01*
X123356884Y-53521636D01*
X123506127Y-53514298D01*
X123667504Y-53507354D01*
X123841854Y-53500713D01*
X123955834Y-53496740D01*
X124098928Y-53490439D01*
X124228955Y-53481652D01*
X124345446Y-53470414D01*
X124374557Y-53466959D01*
X124467273Y-53455470D01*
X124553683Y-53382809D01*
X124668524Y-53289895D01*
X124778880Y-53208281D01*
X124886852Y-53136539D01*
X124994536Y-53073240D01*
X125056843Y-53040263D01*
X125125040Y-53006484D01*
X125185374Y-52978863D01*
X125242010Y-52955766D01*
X125299112Y-52935561D01*
X125360846Y-52916615D01*
X125399975Y-52905678D01*
X125491152Y-52882566D01*
X125572176Y-52865745D01*
X125645563Y-52854808D01*
X125713829Y-52849349D01*
X125753175Y-52848533D01*
X125839185Y-52853150D01*
X125914381Y-52866809D01*
X125979161Y-52889632D01*
X126033928Y-52921742D01*
X126057906Y-52941525D01*
X126091870Y-52980810D01*
X126112379Y-53023027D01*
X126119890Y-53067661D01*
X126114859Y-53114196D01*
X126097739Y-53162116D01*
X126068987Y-53210905D01*
X126029059Y-53260047D01*
X125978408Y-53309027D01*
X125917491Y-53357328D01*
X125846763Y-53404435D01*
X125766679Y-53449832D01*
X125677695Y-53493003D01*
X125580266Y-53533432D01*
X125514271Y-53557429D01*
X125440190Y-53581049D01*
X125358864Y-53603673D01*
X125275816Y-53623920D01*
X125196565Y-53640416D01*
X125148669Y-53648632D01*
X125063865Y-53661638D01*
X125012515Y-53726123D01*
X124929343Y-53834460D01*
X124847151Y-53949527D01*
X124765002Y-54072774D01*
X124681957Y-54205651D01*
X124597080Y-54349609D01*
X124516648Y-54492937D01*
X124482131Y-54556132D01*
X124446018Y-54622912D01*
X124408901Y-54692128D01*
X124371373Y-54762637D01*
X124334027Y-54833292D01*
X124297455Y-54902946D01*
X124262251Y-54970455D01*
X124229008Y-55034671D01*
X124198318Y-55094449D01*
X124170774Y-55148643D01*
X124146970Y-55196108D01*
X124127498Y-55235696D01*
X124112951Y-55266263D01*
X124103922Y-55286662D01*
X124101004Y-55295748D01*
X124101117Y-55296052D01*
X124108817Y-55295396D01*
X124126023Y-55290853D01*
X124145641Y-55284538D01*
X124229939Y-55261152D01*
X124321831Y-55245783D01*
X124416574Y-55239159D01*
X124443055Y-55238970D01*
X124511142Y-55241485D01*
X124575836Y-55248478D01*
X124640431Y-55260661D01*
X124708220Y-55278745D01*
X124782498Y-55303441D01*
X124838281Y-55324330D01*
X124871673Y-55337286D01*
X124944806Y-55273594D01*
X124979674Y-55242644D01*
X125013503Y-55211274D01*
X125046920Y-55178702D01*
X125080552Y-55144147D01*
X125115028Y-55106826D01*
X125150975Y-55065958D01*
X125189021Y-55020761D01*
X125229792Y-54970452D01*
X125273917Y-54914251D01*
X125322023Y-54851374D01*
X125374737Y-54781040D01*
X125432688Y-54702467D01*
X125496503Y-54614873D01*
X125566808Y-54517477D01*
X125644233Y-54409495D01*
X125692215Y-54342315D01*
X125784109Y-54213993D01*
X125868706Y-54096925D01*
X125946578Y-53990391D01*
X126018296Y-53893668D01*
X126084432Y-53806036D01*
X126145557Y-53726773D01*
X126202244Y-53655157D01*
X126255063Y-53590466D01*
X126304586Y-53531979D01*
X126351386Y-53478975D01*
X126396033Y-53430732D01*
X126439098Y-53386528D01*
X126481155Y-53345642D01*
X126483373Y-53343548D01*
X126564057Y-53267483D01*
X126483373Y-53197818D01*
X126328317Y-53070800D01*
X126171412Y-52956279D01*
X126009921Y-52852448D01*
X125841109Y-52757501D01*
X125736341Y-52704614D01*
X125652136Y-52664609D01*
X125575823Y-52630331D01*
X125503076Y-52600019D01*
X125429571Y-52571910D01*
X125350980Y-52544243D01*
X125304268Y-52528658D01*
X125097112Y-52468125D01*
X124886282Y-52421163D01*
X124672706Y-52387772D01*
X124457312Y-52367953D01*
X124241027Y-52361704D01*
X124024779Y-52369028D01*
X123809495Y-52389922D01*
X123596103Y-52424388D01*
X123385530Y-52472425D01*
X123194930Y-52528658D01*
X123111727Y-52556828D01*
X123035975Y-52584477D01*
X122963349Y-52613365D01*
X122889523Y-52645255D01*
X122810172Y-52681908D01*
X122762858Y-52704614D01*
X122567236Y-52807379D01*
X122379715Y-52921936D01*
X122200520Y-53048101D01*
X122029875Y-53185696D01*
X121868006Y-53334538D01*
X121715136Y-53494446D01*
X121574336Y-53661638D01*
X121451176Y-53828344D01*
X121337245Y-54004927D01*
X121233537Y-54189533D01*
X121141049Y-54380308D01*
X121060774Y-54575401D01*
X121017348Y-54698400D01*
X120955379Y-54908565D01*
X120907293Y-55122058D01*
X120873144Y-55338452D01*
X120852987Y-55557325D01*
X120846876Y-55778249D01*
X120489646Y-55778249D01*
X120488943Y-55749619D01*
X120496758Y-55522631D01*
X120517842Y-55296887D01*
X120552088Y-55073936D01*
X120599389Y-54855327D01*
X120609755Y-54814746D01*
X120675110Y-54593106D01*
X120753548Y-54376877D01*
X120844694Y-54166585D01*
X120948174Y-53962757D01*
X121063612Y-53765919D01*
X121190633Y-53576597D01*
X121328863Y-53395317D01*
X121477927Y-53222607D01*
X121637448Y-53058992D01*
X121807053Y-52904999D01*
X121986367Y-52761155D01*
X122160996Y-52637293D01*
X122357088Y-52514479D01*
X122557234Y-52405117D01*
X122761914Y-52309034D01*
X122971612Y-52226059D01*
X123186809Y-52156018D01*
X123407987Y-52098741D01*
X123635629Y-52054053D01*
X123870216Y-52021783D01*
X123888220Y-52019847D01*
X123949089Y-52014731D01*
X124021207Y-52010830D01*
X124101545Y-52008143D01*
X124187073Y-52006670D01*
X124274764Y-52006410D01*
X124361586Y-52007365D01*
X124444511Y-52009534D01*
X124520510Y-52012917D01*
X124586554Y-52017514D01*
X124610979Y-52019847D01*
X124848425Y-52051709D01*
X125079796Y-52096549D01*
X125305099Y-52154371D01*
X125524342Y-52225179D01*
X125737533Y-52308974D01*
X125944679Y-52405762D01*
X126145787Y-52515544D01*
X126340865Y-52638326D01*
X126529921Y-52774109D01*
X126712962Y-52922897D01*
X126789545Y-52990624D01*
X126814844Y-53013163D01*
X126836435Y-53031663D01*
X126852065Y-53044243D01*
X126859483Y-53049026D01*
X126859547Y-53049029D01*
X126867911Y-53045990D01*
X126886072Y-53037789D01*
X126911072Y-53025795D01*
X126931252Y-53015780D01*
X127041383Y-52966468D01*
X127158607Y-52925146D01*
X127280155Y-52892369D01*
X127403260Y-52868691D01*
X127525154Y-52854667D01*
X127643069Y-52850850D01*
X127731800Y-52855436D01*
X127859545Y-52873272D01*
X127984971Y-52902304D01*
X128104724Y-52941651D01*
X128180341Y-52973449D01*
X128264592Y-53019160D01*
X128346672Y-53076744D01*
X128423566Y-53143768D01*
X128492257Y-53217801D01*
X128508779Y-53238383D01*
X128532803Y-53268983D01*
X128549878Y-53291961D01*
X128559945Y-53310189D01*
X128562944Y-53326535D01*
X128558815Y-53343868D01*
X128547498Y-53365058D01*
X128528932Y-53392973D01*
X128504814Y-53427917D01*
X128480065Y-53464097D01*
X128456031Y-53499273D01*
X128434812Y-53530368D01*
X128418508Y-53554306D01*
X128412708Y-53562846D01*
X128398814Y-53582301D01*
X128387744Y-53595909D01*
X128382385Y-53600462D01*
X128374117Y-53596908D01*
X128358167Y-53587472D01*
X128344789Y-53578747D01*
X128281365Y-53544289D01*
X128208802Y-53519828D01*
X128128138Y-53505270D01*
X128040409Y-53500522D01*
X127946651Y-53505490D01*
X127847901Y-53520079D01*
X127745196Y-53544196D01*
X127639571Y-53577747D01*
X127532064Y-53620638D01*
X127448861Y-53659866D01*
X127388421Y-53690298D01*
X127425082Y-53747619D01*
X127483224Y-53842728D01*
X127542349Y-53947227D01*
X127600342Y-54056993D01*
X127655089Y-54167902D01*
X127704477Y-54275831D01*
X127742750Y-54367393D01*
X127812402Y-54557071D01*
X127871154Y-54747382D01*
X127919603Y-54940827D01*
X127958345Y-55139909D01*
X127987976Y-55347131D01*
X127997985Y-55438564D01*
X128001671Y-55486720D01*
X128004444Y-55546444D01*
X128006319Y-55615003D01*
X128007310Y-55689666D01*
X128007432Y-55767699D01*
X128006700Y-55846371D01*
X128005129Y-55922949D01*
X128002734Y-55994701D01*
X127999530Y-56058895D01*
X127995531Y-56112798D01*
X127994242Y-56125951D01*
X127965532Y-56346938D01*
X127926425Y-56559351D01*
X127876419Y-56764981D01*
X127815014Y-56965618D01*
X127741708Y-57163052D01*
X127656001Y-57359074D01*
X127639088Y-57394614D01*
X127532223Y-57600068D01*
X127413350Y-57797952D01*
X127282902Y-57987768D01*
X127141312Y-58169020D01*
X126989014Y-58341211D01*
X126826441Y-58503843D01*
X126654027Y-58656419D01*
X126472204Y-58798442D01*
X126327456Y-58899373D01*
X126132629Y-59020463D01*
X125933037Y-59128485D01*
X125728094Y-59223666D01*
X125517215Y-59306237D01*
X125299815Y-59376426D01*
X125075309Y-59434461D01*
X124843111Y-59480572D01*
X124839767Y-59481140D01*
X124726073Y-59500410D01*
X124271094Y-59502129D01*
X124178954Y-59502466D01*
X124099837Y-59502705D01*
X124032436Y-59502811D01*
X123975445Y-59502748D01*
X123927558Y-59502479D01*
X123887466Y-59501971D01*
X123853865Y-59501186D01*
X123825446Y-59500090D01*
X123800904Y-59498647D01*
X123778931Y-59496820D01*
X123758221Y-59494576D01*
X123737467Y-59491878D01*
X123715363Y-59488690D01*
X123701475Y-59486613D01*
X123476137Y-59445749D01*
X123254157Y-59391582D01*
X123036331Y-59324473D01*
X122823451Y-59244783D01*
X122616313Y-59152874D01*
X122415710Y-59049107D01*
X122222437Y-58933844D01*
X122037288Y-58807447D01*
X121861058Y-58670277D01*
X121806327Y-58623864D01*
X121774523Y-58597242D01*
X121748597Y-58577400D01*
X121730032Y-58565400D01*
X121720347Y-58562288D01*
X121710066Y-58565770D01*
X121688878Y-58572993D01*
X121659430Y-58583052D01*
X121624371Y-58595044D01*
X121605707Y-58601434D01*
X121514504Y-58630056D01*
X121427057Y-58651700D01*
X121339833Y-58666862D01*
X121249298Y-58676037D01*
X121151920Y-58679721D01*
X121054445Y-58678720D01*
X120951531Y-58673556D01*
X120858804Y-58663992D01*
X120772660Y-58649527D01*
X120689496Y-58629662D01*
X120677836Y-58626408D01*
X120564501Y-58587087D01*
X120458720Y-58536023D01*
X120360981Y-58473937D01*
X120271770Y-58401550D01*
X120238342Y-58367384D01*
X122062911Y-58367384D01*
X122063597Y-58373089D01*
X122069534Y-58378746D01*
X122070149Y-58379228D01*
X122081140Y-58387848D01*
X122100732Y-58403243D01*
X122126268Y-58423325D01*
X122155092Y-58446004D01*
X122158644Y-58448800D01*
X122286079Y-58543338D01*
X122424246Y-58635294D01*
X122569555Y-58722604D01*
X122718416Y-58803204D01*
X122867240Y-58875030D01*
X122992138Y-58928082D01*
X123190317Y-58999274D01*
X123393970Y-59058320D01*
X123601516Y-59104970D01*
X123811371Y-59138976D01*
X124021953Y-59160090D01*
X124231679Y-59168063D01*
X124438967Y-59162646D01*
X124471715Y-59160526D01*
X124684068Y-59139697D01*
X124889154Y-59107376D01*
X125088695Y-59063233D01*
X125284414Y-59006937D01*
X125304268Y-59000486D01*
X125387472Y-58972316D01*
X125463224Y-58944667D01*
X125535850Y-58915779D01*
X125609676Y-58883889D01*
X125689027Y-58847236D01*
X125736341Y-58824530D01*
X125932249Y-58721669D01*
X126119675Y-58607293D01*
X126298437Y-58481570D01*
X126468353Y-58344667D01*
X126629241Y-58196751D01*
X126780918Y-58037990D01*
X126923201Y-57868552D01*
X127055909Y-57688603D01*
X127176575Y-57502090D01*
X127200083Y-57461398D01*
X127227761Y-57410445D01*
X127258169Y-57352152D01*
X127289864Y-57289442D01*
X127321406Y-57225239D01*
X127351352Y-57162466D01*
X127378260Y-57104044D01*
X127400691Y-57052898D01*
X127413331Y-57022033D01*
X127488041Y-56812116D01*
X127548816Y-56599522D01*
X127595655Y-56384812D01*
X127628558Y-56168547D01*
X127647526Y-55951289D01*
X127652558Y-55733598D01*
X127643655Y-55516035D01*
X127620816Y-55299163D01*
X127584042Y-55083540D01*
X127533332Y-54869730D01*
X127468687Y-54658293D01*
X127413227Y-54507111D01*
X127387906Y-54446242D01*
X127356647Y-54376728D01*
X127321172Y-54302035D01*
X127283204Y-54225628D01*
X127244466Y-54150973D01*
X127206680Y-54081535D01*
X127171569Y-54020780D01*
X127171033Y-54019889D01*
X127143402Y-53973775D01*
X127122212Y-53938577D01*
X127106222Y-53913115D01*
X127094192Y-53896208D01*
X127084881Y-53886675D01*
X127077049Y-53883336D01*
X127069455Y-53885009D01*
X127060858Y-53890515D01*
X127050018Y-53898672D01*
X127046404Y-53901276D01*
X126983647Y-53946361D01*
X126918154Y-53995047D01*
X126849318Y-54047847D01*
X126776532Y-54105275D01*
X126699189Y-54167845D01*
X126616680Y-54236070D01*
X126528400Y-54310464D01*
X126433740Y-54391540D01*
X126332093Y-54479813D01*
X126222853Y-54575795D01*
X126105411Y-54680001D01*
X125979160Y-54792944D01*
X125843494Y-54915138D01*
X125782914Y-54969927D01*
X125691567Y-55052250D01*
X125609074Y-55125749D01*
X125534042Y-55191620D01*
X125465080Y-55251055D01*
X125400797Y-55305252D01*
X125339800Y-55355405D01*
X125280697Y-55402709D01*
X125259867Y-55419074D01*
X125227296Y-55444614D01*
X125198178Y-55467581D01*
X125174606Y-55486312D01*
X125158675Y-55499145D01*
X125153000Y-55503901D01*
X125150177Y-55509142D01*
X125152393Y-55517089D01*
X125160885Y-55529483D01*
X125176893Y-55548064D01*
X125201652Y-55574576D01*
X125207846Y-55581069D01*
X125262338Y-55642206D01*
X125310424Y-55705550D01*
X125353388Y-55773389D01*
X125392510Y-55848011D01*
X125429074Y-55931705D01*
X125464361Y-56026758D01*
X125474740Y-56057381D01*
X125514598Y-56190811D01*
X125548627Y-56334143D01*
X125576935Y-56488056D01*
X125599630Y-56653230D01*
X125616820Y-56830345D01*
X125628614Y-57020081D01*
X125628869Y-57025616D01*
X125634173Y-57121693D01*
X125641176Y-57217049D01*
X125649634Y-57309550D01*
X125659304Y-57397064D01*
X125669941Y-57477455D01*
X125681301Y-57548593D01*
X125693141Y-57608342D01*
X125697701Y-57627559D01*
X125710955Y-57674067D01*
X125727357Y-57722042D01*
X125745400Y-57767689D01*
X125763576Y-57807214D01*
X125780375Y-57836823D01*
X125781606Y-57838637D01*
X125818612Y-57880710D01*
X125862879Y-57910744D01*
X125913764Y-57928650D01*
X125970620Y-57934341D01*
X126032804Y-57927727D01*
X126099671Y-57908723D01*
X126147694Y-57888579D01*
X126219942Y-57847772D01*
X126290695Y-57795054D01*
X126357563Y-57732815D01*
X126418157Y-57663446D01*
X126470087Y-57589337D01*
X126499789Y-57536349D01*
X126515721Y-57506371D01*
X126527309Y-57488810D01*
X126535267Y-57482677D01*
X126538034Y-57483522D01*
X126544747Y-57491567D01*
X126557885Y-57509298D01*
X126575870Y-57534517D01*
X126597124Y-57565022D01*
X126610403Y-57584384D01*
X126674511Y-57678390D01*
X126653687Y-57739722D01*
X126627545Y-57807388D01*
X126593096Y-57882221D01*
X126552070Y-57961165D01*
X126506200Y-58041161D01*
X126457217Y-58119150D01*
X126406851Y-58192074D01*
X126370418Y-58240087D01*
X126334080Y-58283121D01*
X126290550Y-58330346D01*
X126243067Y-58378561D01*
X126194869Y-58424567D01*
X126149194Y-58465163D01*
X126113479Y-58494008D01*
X126028081Y-58553875D01*
X125946070Y-58601238D01*
X125865400Y-58636850D01*
X125784025Y-58661466D01*
X125699898Y-58675840D01*
X125610971Y-58680727D01*
X125606801Y-58680736D01*
X125492995Y-58675687D01*
X125386999Y-58660684D01*
X125289552Y-58635937D01*
X125201387Y-58601659D01*
X125123243Y-58558063D01*
X125084906Y-58530273D01*
X125017138Y-58468797D01*
X124957761Y-58398504D01*
X124906557Y-58318862D01*
X124863309Y-58229341D01*
X124827800Y-58129409D01*
X124799811Y-58018535D01*
X124779127Y-57896189D01*
X124765529Y-57761839D01*
X124764546Y-57747649D01*
X124761775Y-57686660D01*
X124761037Y-57616706D01*
X124762368Y-57537140D01*
X124765803Y-57447316D01*
X124771378Y-57346586D01*
X124779130Y-57234304D01*
X124789093Y-57109823D01*
X124801304Y-56972496D01*
X124815799Y-56821675D01*
X124815825Y-56821413D01*
X124829231Y-56682770D01*
X124840586Y-56557518D01*
X124849926Y-56444869D01*
X124857284Y-56344037D01*
X124862695Y-56254236D01*
X124866192Y-56174677D01*
X124867810Y-56104574D01*
X124867584Y-56043139D01*
X124865546Y-55989587D01*
X124861732Y-55943130D01*
X124856175Y-55902981D01*
X124855778Y-55900707D01*
X124848187Y-55861660D01*
X124839606Y-55823868D01*
X124830748Y-55789865D01*
X124822328Y-55762187D01*
X124815058Y-55743367D01*
X124809652Y-55735940D01*
X124809390Y-55735912D01*
X124801377Y-55739227D01*
X124783365Y-55748311D01*
X124757822Y-55761871D01*
X124727219Y-55778617D01*
X124719026Y-55783173D01*
X124652754Y-55818347D01*
X124582162Y-55852639D01*
X124511144Y-55884325D01*
X124443592Y-55911680D01*
X124383401Y-55932977D01*
X124374987Y-55935623D01*
X124301081Y-55956154D01*
X124233410Y-55969598D01*
X124166226Y-55976729D01*
X124093784Y-55978322D01*
X124063309Y-55977624D01*
X124001406Y-55974161D01*
X123950627Y-55967805D01*
X123907927Y-55957828D01*
X123870263Y-55943500D01*
X123834594Y-55924093D01*
X123831410Y-55922093D01*
X123812436Y-55910553D01*
X123799135Y-55903404D01*
X123794963Y-55902132D01*
X123791414Y-55908817D01*
X123782182Y-55926621D01*
X123768108Y-55953908D01*
X123750037Y-55989040D01*
X123728811Y-56030379D01*
X123705274Y-56076287D01*
X123701623Y-56083415D01*
X123642798Y-56197427D01*
X123582163Y-56313389D01*
X123520638Y-56429611D01*
X123459144Y-56544403D01*
X123398602Y-56656074D01*
X123339933Y-56762933D01*
X123284058Y-56863291D01*
X123231898Y-56955455D01*
X123184373Y-57037737D01*
X123151285Y-57093683D01*
X123030969Y-57286881D01*
X122908216Y-57468996D01*
X122783404Y-57639581D01*
X122656910Y-57798190D01*
X122529111Y-57944375D01*
X122400385Y-58077690D01*
X122271110Y-58197688D01*
X122141662Y-58303921D01*
X122108239Y-58329073D01*
X122083644Y-58347467D01*
X122069064Y-58359540D01*
X122062911Y-58367384D01*
X120238342Y-58367384D01*
X120191574Y-58319584D01*
X120120879Y-58228761D01*
G37*
G36*
X122715516Y-60533009D02*
G01*
X122782831Y-60544761D01*
X122845510Y-60565845D01*
X122907480Y-60597414D01*
X122939445Y-60617503D01*
X122998814Y-60664802D01*
X123049249Y-60721052D01*
X123089819Y-60784284D01*
X123119593Y-60852526D01*
X123137639Y-60923809D01*
X123143027Y-60996162D01*
X123139561Y-61040987D01*
X123121674Y-61121825D01*
X123091656Y-61195138D01*
X123049706Y-61260709D01*
X122996021Y-61318321D01*
X122930798Y-61367755D01*
X122854235Y-61408793D01*
X122780770Y-61436789D01*
X122750985Y-61443332D01*
X122711221Y-61447873D01*
X122665701Y-61450322D01*
X122618649Y-61450589D01*
X122574286Y-61448584D01*
X122536836Y-61444217D01*
X122526525Y-61442200D01*
X122448898Y-61418084D01*
X122376934Y-61382454D01*
X122312059Y-61336625D01*
X122255697Y-61281909D01*
X122209272Y-61219618D01*
X122174211Y-61151067D01*
X122157814Y-61102393D01*
X122144449Y-61026816D01*
X122144618Y-60952101D01*
X122157529Y-60879509D01*
X122182394Y-60810298D01*
X122218421Y-60745731D01*
X122264819Y-60687065D01*
X122320798Y-60635563D01*
X122385567Y-60592483D01*
X122458336Y-60559086D01*
X122508499Y-60543439D01*
X122560371Y-60533780D01*
X122621186Y-60529650D01*
X122639638Y-60529434D01*
X122715516Y-60533009D01*
G37*
G36*
X126003238Y-60056562D02*
G01*
X126151913Y-60056704D01*
X126202068Y-60129701D01*
X126224983Y-60163107D01*
X126250859Y-60200918D01*
X126278227Y-60240980D01*
X126305623Y-60281143D01*
X126331578Y-60319252D01*
X126354627Y-60353156D01*
X126373303Y-60380702D01*
X126386140Y-60399738D01*
X126390124Y-60405714D01*
X126400754Y-60421836D01*
X126308576Y-60421705D01*
X126216398Y-60421575D01*
X126035481Y-60241919D01*
X125993696Y-60200346D01*
X125955318Y-60162011D01*
X125921493Y-60128069D01*
X125893364Y-60099674D01*
X125872074Y-60077980D01*
X125858770Y-60064144D01*
X125854564Y-60059342D01*
X125861378Y-60058475D01*
X125880416Y-60057725D01*
X125909572Y-60057129D01*
X125946741Y-60056728D01*
X125989816Y-60056561D01*
X126003238Y-60056562D01*
G37*
G36*
X123980151Y-60581283D02*
G01*
X124040627Y-60589760D01*
X124043137Y-60590272D01*
X124114288Y-60611470D01*
X124177177Y-60643730D01*
X124230975Y-60686437D01*
X124274853Y-60738976D01*
X124298235Y-60779266D01*
X124309686Y-60803007D01*
X124317266Y-60821713D01*
X124321771Y-60839484D01*
X124324002Y-60860421D01*
X124324755Y-60888623D01*
X124324832Y-60915851D01*
X124324832Y-60998620D01*
X124288177Y-61074553D01*
X124248109Y-61151263D01*
X124204324Y-61221817D01*
X124152918Y-61292408D01*
X124141965Y-61306338D01*
X124098171Y-61361448D01*
X124142703Y-61448722D01*
X124174535Y-61510637D01*
X124201103Y-61560903D01*
X124223356Y-61600789D01*
X124242240Y-61631561D01*
X124258703Y-61654486D01*
X124273693Y-61670831D01*
X124288157Y-61681861D01*
X124303042Y-61688845D01*
X124319296Y-61693049D01*
X124326316Y-61694224D01*
X124353595Y-61695103D01*
X124379472Y-61687441D01*
X124386822Y-61683989D01*
X124405619Y-61675840D01*
X124418976Y-61672148D01*
X124422042Y-61672430D01*
X124428391Y-61679671D01*
X124439995Y-61695545D01*
X124454358Y-61716634D01*
X124454535Y-61716900D01*
X124472939Y-61744266D01*
X124494949Y-61776285D01*
X124515650Y-61805811D01*
X124533122Y-61831149D01*
X124541592Y-61848306D01*
X124540358Y-61860783D01*
X124528721Y-61872080D01*
X124505980Y-61885697D01*
X124498871Y-61889654D01*
X124457047Y-61907464D01*
X124407282Y-61920157D01*
X124353964Y-61927299D01*
X124301479Y-61928462D01*
X124254215Y-61923212D01*
X124228574Y-61916231D01*
X124198253Y-61901450D01*
X124164463Y-61879191D01*
X124132449Y-61853351D01*
X124107455Y-61827829D01*
X124104329Y-61823866D01*
X124070676Y-61777731D01*
X124041395Y-61733602D01*
X124013757Y-61687018D01*
X123985035Y-61633518D01*
X123970846Y-61605635D01*
X123948240Y-61560633D01*
X123913005Y-61630713D01*
X123892790Y-61668644D01*
X123868256Y-61711349D01*
X123843416Y-61751945D01*
X123832613Y-61768585D01*
X123789292Y-61826398D01*
X123744730Y-61870631D01*
X123697437Y-61902033D01*
X123645920Y-61921352D01*
X123588690Y-61929337D01*
X123524255Y-61926737D01*
X123518767Y-61926097D01*
X123488658Y-61921286D01*
X123459361Y-61914760D01*
X123442562Y-61909736D01*
X123416727Y-61898717D01*
X123391669Y-61885213D01*
X123370733Y-61871367D01*
X123357263Y-61859328D01*
X123354066Y-61852959D01*
X123358011Y-61844271D01*
X123368828Y-61826140D01*
X123385095Y-61800807D01*
X123405392Y-61770514D01*
X123417648Y-61752708D01*
X123442204Y-61717769D01*
X123460164Y-61693411D01*
X123472788Y-61678231D01*
X123481337Y-61670825D01*
X123487070Y-61669790D01*
X123490054Y-61672068D01*
X123509107Y-61685517D01*
X123536177Y-61693329D01*
X123565669Y-61694344D01*
X123582227Y-61691198D01*
X123597289Y-61685879D01*
X123610999Y-61678669D01*
X123624260Y-61668278D01*
X123637972Y-61653414D01*
X123653038Y-61632785D01*
X123670360Y-61605100D01*
X123690838Y-61569066D01*
X123715376Y-61523392D01*
X123744875Y-61466787D01*
X123761670Y-61434169D01*
X123799251Y-61361001D01*
X123760357Y-61312256D01*
X123706449Y-61240083D01*
X123658976Y-61167227D01*
X123619522Y-61096377D01*
X123589673Y-61030220D01*
X123582255Y-61010037D01*
X123570051Y-60954554D01*
X123568847Y-60894583D01*
X123578218Y-60834286D01*
X123597738Y-60777824D01*
X123608066Y-60757644D01*
X123634372Y-60720617D01*
X123669684Y-60683904D01*
X123710161Y-60650669D01*
X123751960Y-60624077D01*
X123790276Y-60607579D01*
X123859055Y-60589913D01*
X123920987Y-60581241D01*
X123980151Y-60581283D01*
G37*
G36*
X121059080Y-60054756D02*
G01*
X121130442Y-60073942D01*
X121195629Y-60103368D01*
X121253177Y-60142346D01*
X121301619Y-60190190D01*
X121339491Y-60246213D01*
X121344824Y-60256604D01*
X121362915Y-60300227D01*
X121377555Y-60348530D01*
X121387281Y-60395828D01*
X121390633Y-60434375D01*
X121390756Y-60471991D01*
X121104155Y-60471991D01*
X121103841Y-60448705D01*
X121099546Y-60418325D01*
X121089037Y-60386795D01*
X121074759Y-60360970D01*
X121070803Y-60356114D01*
X121042047Y-60334075D01*
X121005077Y-60319839D01*
X120964176Y-60314198D01*
X120923628Y-60317945D01*
X120901685Y-60324846D01*
X120874691Y-60341802D01*
X120850980Y-60366582D01*
X120835362Y-60393930D01*
X120833673Y-60399102D01*
X120832422Y-60410574D01*
X120831274Y-60434601D01*
X120830265Y-60469406D01*
X120829428Y-60513215D01*
X120828799Y-60564251D01*
X120828413Y-60620739D01*
X120828302Y-60672611D01*
X120828325Y-60739752D01*
X120828454Y-60794152D01*
X120828779Y-60837401D01*
X120829390Y-60871086D01*
X120830378Y-60896799D01*
X120831832Y-60916127D01*
X120833843Y-60930661D01*
X120836501Y-60941988D01*
X120839897Y-60951699D01*
X120844119Y-60961383D01*
X120844767Y-60962795D01*
X120869758Y-61002759D01*
X120904392Y-61034202D01*
X120949266Y-61057389D01*
X121004971Y-61072585D01*
X121072104Y-61080056D01*
X121109529Y-61080976D01*
X121168640Y-61081018D01*
X121168640Y-61919325D01*
X120882039Y-61919325D01*
X120882039Y-61334503D01*
X120844423Y-61325214D01*
X120776807Y-61302015D01*
X120714728Y-61267912D01*
X120660226Y-61224515D01*
X120615341Y-61173433D01*
X120583568Y-61119472D01*
X120572717Y-61094834D01*
X120563679Y-61070996D01*
X120556310Y-61046418D01*
X120550464Y-61019562D01*
X120545998Y-60988886D01*
X120542767Y-60952851D01*
X120540625Y-60909918D01*
X120539428Y-60858545D01*
X120539032Y-60797194D01*
X120539292Y-60724324D01*
X120539894Y-60654699D01*
X120540714Y-60580614D01*
X120541589Y-60519374D01*
X120542586Y-60469494D01*
X120543776Y-60429490D01*
X120545226Y-60397877D01*
X120547005Y-60373170D01*
X120549182Y-60353884D01*
X120551826Y-60338535D01*
X120555005Y-60325637D01*
X120555137Y-60325177D01*
X120574144Y-60270991D01*
X120598250Y-60225792D01*
X120630244Y-60184424D01*
X120632843Y-60181547D01*
X120686055Y-60132263D01*
X120745745Y-60094606D01*
X120813224Y-60067938D01*
X120889804Y-60051622D01*
X120903694Y-60049847D01*
X120983009Y-60046495D01*
X121059080Y-60054756D01*
G37*
G36*
X126996602Y-60049670D02*
G01*
X127065812Y-60061353D01*
X127101391Y-60071347D01*
X127159289Y-60096471D01*
X127213631Y-60131650D01*
X127261651Y-60174462D01*
X127300587Y-60222483D01*
X127325424Y-60267788D01*
X127333300Y-60287032D01*
X127339851Y-60305351D01*
X127345198Y-60324251D01*
X127349464Y-60345240D01*
X127352769Y-60369824D01*
X127355234Y-60399512D01*
X127356982Y-60435810D01*
X127358133Y-60480225D01*
X127358808Y-60534266D01*
X127359129Y-60599438D01*
X127359218Y-60677250D01*
X127359219Y-60687635D01*
X127359198Y-60762002D01*
X127359088Y-60823553D01*
X127358821Y-60873800D01*
X127358327Y-60914259D01*
X127357536Y-60946442D01*
X127356380Y-60971863D01*
X127354788Y-60992035D01*
X127352691Y-61008473D01*
X127350021Y-61022690D01*
X127346707Y-61036199D01*
X127342680Y-61050514D01*
X127342565Y-61050912D01*
X127331085Y-61084748D01*
X127316615Y-61119457D01*
X127302172Y-61147840D01*
X127301366Y-61149195D01*
X127261840Y-61201851D01*
X127211326Y-61248416D01*
X127152580Y-61286860D01*
X127088356Y-61315154D01*
X127067219Y-61321700D01*
X127022463Y-61334143D01*
X127022463Y-61919325D01*
X126735862Y-61919325D01*
X126735862Y-61081018D01*
X126795449Y-61081018D01*
X126867641Y-61077190D01*
X126928228Y-61065511D01*
X126977778Y-61045689D01*
X127016861Y-61017432D01*
X127046044Y-60980448D01*
X127062868Y-60943745D01*
X127066482Y-60932226D01*
X127069383Y-60919510D01*
X127071650Y-60903958D01*
X127073358Y-60883932D01*
X127074584Y-60857792D01*
X127075405Y-60823900D01*
X127075897Y-60780618D01*
X127076136Y-60726306D01*
X127076200Y-60659327D01*
X127076200Y-60658281D01*
X127076175Y-60590038D01*
X127075970Y-60534537D01*
X127075390Y-60490193D01*
X127074238Y-60455417D01*
X127072320Y-60428623D01*
X127069439Y-60408224D01*
X127065401Y-60392632D01*
X127060009Y-60380261D01*
X127053069Y-60369523D01*
X127044384Y-60358832D01*
X127038470Y-60352026D01*
X127011821Y-60331526D01*
X126976795Y-60318836D01*
X126937336Y-60314444D01*
X126897386Y-60318839D01*
X126864723Y-60330482D01*
X126832818Y-60353888D01*
X126811604Y-60386541D01*
X126800812Y-60428867D01*
X126800401Y-60432583D01*
X126796764Y-60468408D01*
X126657564Y-60470359D01*
X126614185Y-60470666D01*
X126575698Y-60470370D01*
X126544406Y-60469532D01*
X126522612Y-60468219D01*
X126512617Y-60466494D01*
X126512361Y-60466306D01*
X126510142Y-60456150D01*
X126510695Y-60435560D01*
X126513536Y-60408059D01*
X126518185Y-60377167D01*
X126524158Y-60346407D01*
X126530974Y-60319301D01*
X126533655Y-60310778D01*
X126563608Y-60244060D01*
X126605062Y-60185353D01*
X126657090Y-60135536D01*
X126718764Y-60095488D01*
X126789157Y-60066089D01*
X126793182Y-60064823D01*
X126855674Y-60051308D01*
X126925019Y-60046289D01*
X126996602Y-60049670D01*
G37*
G36*
X121867198Y-60238975D02*
G01*
X121680939Y-60421531D01*
X121589340Y-60421684D01*
X121497741Y-60421836D01*
X121586636Y-60291074D01*
X121615219Y-60249016D01*
X121643476Y-60207415D01*
X121669572Y-60168974D01*
X121691671Y-60136398D01*
X121707937Y-60112390D01*
X121710478Y-60108634D01*
X121745425Y-60056956D01*
X121899440Y-60056688D01*
X122053456Y-60056420D01*
X121867198Y-60238975D01*
G37*
G36*
X125323194Y-60532258D02*
G01*
X125382317Y-60541929D01*
X125439110Y-60559569D01*
X125492731Y-60583283D01*
X125563426Y-60625877D01*
X125625415Y-60679056D01*
X125677414Y-60741421D01*
X125718141Y-60811576D01*
X125731912Y-60843904D01*
X125739279Y-60864543D01*
X125744323Y-60883411D01*
X125747465Y-60903995D01*
X125749127Y-60929777D01*
X125749731Y-60964243D01*
X125749758Y-60991455D01*
X125749297Y-61035080D01*
X125747905Y-61067540D01*
X125745252Y-61091989D01*
X125741013Y-61111580D01*
X125735597Y-61127590D01*
X125698340Y-61205657D01*
X125651249Y-61273501D01*
X125594052Y-61331368D01*
X125526479Y-61379506D01*
X125448258Y-61418160D01*
X125396683Y-61436720D01*
X125376177Y-61440987D01*
X125345263Y-61444778D01*
X125307862Y-61447883D01*
X125267895Y-61450089D01*
X125229281Y-61451184D01*
X125195940Y-61450956D01*
X125171794Y-61449192D01*
X125170305Y-61448967D01*
X125098780Y-61431345D01*
X125028942Y-61402570D01*
X124963250Y-61364310D01*
X124904163Y-61318236D01*
X124854143Y-61266018D01*
X124815648Y-61209328D01*
X124814640Y-61207471D01*
X124794629Y-61168943D01*
X124780537Y-61137171D01*
X124771323Y-61107902D01*
X124765944Y-61076885D01*
X124763355Y-61039868D01*
X124762530Y-60995037D01*
X124762711Y-60950633D01*
X124764129Y-60917159D01*
X124767100Y-60891245D01*
X124771937Y-60869522D01*
X124775248Y-60858902D01*
X124806986Y-60786604D01*
X124851553Y-60719721D01*
X124894007Y-60672316D01*
X124926560Y-60641719D01*
X124956733Y-60618394D01*
X124990566Y-60598016D01*
X125016257Y-60584857D01*
X125076446Y-60558503D01*
X125132901Y-60541344D01*
X125191343Y-60532055D01*
X125256285Y-60529311D01*
X125323194Y-60532258D01*
G37*
%TO.C,GPIO1*%
X108670000Y-84975000D02*
X108670000Y-83645000D01*
X111270000Y-86305000D02*
X111270000Y-83645000D01*
X111270000Y-86305000D02*
X126570000Y-86305000D01*
X126570000Y-86305000D02*
X126570000Y-83645000D01*
X108670000Y-83645000D02*
X110000000Y-83645000D01*
X111270000Y-83645000D02*
X126570000Y-83645000D01*
%TO.C,R6*%
X64227064Y-65910000D02*
X62772936Y-65910000D01*
X64227064Y-64090000D02*
X62772936Y-64090000D01*
%TO.C,R5*%
X64227064Y-59340000D02*
X62772936Y-59340000D01*
X64227064Y-61160000D02*
X62772936Y-61160000D01*
%TO.C,C13*%
X105590000Y-48148752D02*
X105590000Y-46726248D01*
X107410000Y-48148752D02*
X107410000Y-46726248D01*
%TO.C,C1*%
X66711252Y-49190000D02*
X65288748Y-49190000D01*
X66711252Y-51010000D02*
X65288748Y-51010000D01*
%TO.C,C11*%
X96090000Y-47711252D02*
X96090000Y-46288748D01*
X97910000Y-47711252D02*
X97910000Y-46288748D01*
%TD*%
M02*
